<svg id="Layer_1" data-name="Layer 1" xmlns="http://www.w3.org/2000/svg" xmlns:xlink="http://www.w3.org/1999/xlink" viewBox="0 0 1178 392.754"><defs><style>.cls-1{fill:url(#linear-gradient);}.cls-2{fill:#58595b;}.cls-3{fill:#231f20;opacity:0.35;}.cls-4{fill:#fff;}.cls-5{fill:#27e22b;}.cls-6{fill:#808184;}.cls-7{fill:url(#linear-gradient-2);}.cls-8{fill:url(#linear-gradient-3);}.cls-9{fill:#4d80ff;}.cls-10{fill:url(#linear-gradient-4);}.cls-11{fill:#6d6e70;}.cls-12{fill:url(#linear-gradient-5);}.cls-13{fill:url(#linear-gradient-6);}.cls-14{fill:url(#linear-gradient-7);}.cls-15{fill:url(#linear-gradient-8);}.cls-16{fill:url(#linear-gradient-9);}.cls-17{fill:url(#linear-gradient-10);}.cls-18{fill:url(#linear-gradient-11);}.cls-19{fill:url(#linear-gradient-12);}.cls-20{fill:url(#linear-gradient-13);}.cls-21{fill:url(#linear-gradient-14);}.cls-22{fill:url(#linear-gradient-15);}.cls-23{fill:url(#linear-gradient-16);}.cls-24{fill:url(#linear-gradient-17);}.cls-25{fill:url(#linear-gradient-18);}.cls-26{fill:url(#linear-gradient-19);}.cls-27{fill:url(#linear-gradient-20);}.cls-28{fill:url(#linear-gradient-21);}.cls-29{fill:url(#linear-gradient-22);}.cls-30{fill:url(#linear-gradient-23);}.cls-31{fill:url(#linear-gradient-24);}.cls-32{fill:url(#linear-gradient-25);}.cls-33{fill:url(#linear-gradient-26);}.cls-34{fill:url(#linear-gradient-27);}.cls-35{fill:#e6e7e8;}.cls-36{fill:#ff7f00;}.cls-37{fill:#ec1c24;}</style><linearGradient id="linear-gradient" x1="588.511" y1="4.515" x2="589.483" y2="385.544" gradientUnits="userSpaceOnUse"><stop offset="0" stop-color="#e2f5ff"/><stop offset="1" stop-color="#bfd8ff"/></linearGradient><linearGradient id="linear-gradient-2" x1="914.192" y1="189.429" x2="914.192" y2="203.855" gradientUnits="userSpaceOnUse"><stop offset="0" stop-color="#bbbdbf"/><stop offset="1" stop-color="#e6e7e8"/></linearGradient><linearGradient id="linear-gradient-3" x1="914.192" y1="170.194" x2="914.192" y2="155.767" xlink:href="#linear-gradient-2"/><linearGradient id="linear-gradient-4" x1="862.102" y1="189.429" x2="862.102" y2="203.855" xlink:href="#linear-gradient-2"/><linearGradient id="linear-gradient-5" x1="825.329" y1="189.429" x2="825.329" y2="203.855" xlink:href="#linear-gradient-2"/><linearGradient id="linear-gradient-6" x1="825.329" y1="170.194" x2="825.329" y2="155.767" xlink:href="#linear-gradient-2"/><linearGradient id="linear-gradient-7" x1="862.102" y1="170.194" x2="862.102" y2="155.767" xlink:href="#linear-gradient-2"/><linearGradient id="linear-gradient-8" x1="772.086" y1="189.429" x2="772.086" y2="203.855" xlink:href="#linear-gradient-2"/><linearGradient id="linear-gradient-9" x1="735.313" y1="189.429" x2="735.313" y2="203.855" xlink:href="#linear-gradient-2"/><linearGradient id="linear-gradient-10" x1="735.313" y1="170.194" x2="735.313" y2="155.767" xlink:href="#linear-gradient-2"/><linearGradient id="linear-gradient-11" x1="772.086" y1="170.194" x2="772.086" y2="155.767" xlink:href="#linear-gradient-2"/><linearGradient id="linear-gradient-12" x1="682.071" y1="189.429" x2="682.071" y2="203.855" xlink:href="#linear-gradient-2"/><linearGradient id="linear-gradient-13" x1="645.298" y1="189.429" x2="645.298" y2="203.855" xlink:href="#linear-gradient-2"/><linearGradient id="linear-gradient-14" x1="645.298" y1="170.194" x2="645.298" y2="155.767" xlink:href="#linear-gradient-2"/><linearGradient id="linear-gradient-15" x1="682.071" y1="170.194" x2="682.071" y2="155.767" xlink:href="#linear-gradient-2"/><linearGradient id="linear-gradient-16" x1="592.055" y1="189.429" x2="592.055" y2="203.855" xlink:href="#linear-gradient-2"/><linearGradient id="linear-gradient-17" x1="555.282" y1="189.429" x2="555.282" y2="203.855" xlink:href="#linear-gradient-2"/><linearGradient id="linear-gradient-18" x1="555.282" y1="170.194" x2="555.282" y2="155.767" xlink:href="#linear-gradient-2"/><linearGradient id="linear-gradient-19" x1="592.055" y1="170.194" x2="592.055" y2="155.767" xlink:href="#linear-gradient-2"/><linearGradient id="linear-gradient-20" x1="502.039" y1="189.429" x2="502.039" y2="203.855" xlink:href="#linear-gradient-2"/><linearGradient id="linear-gradient-21" x1="465.267" y1="189.429" x2="465.267" y2="203.855" xlink:href="#linear-gradient-2"/><linearGradient id="linear-gradient-22" x1="465.267" y1="170.194" x2="465.267" y2="155.767" xlink:href="#linear-gradient-2"/><linearGradient id="linear-gradient-23" x1="502.039" y1="170.194" x2="502.039" y2="155.767" xlink:href="#linear-gradient-2"/><linearGradient id="linear-gradient-24" x1="412.024" y1="189.838" x2="412.024" y2="205.749" xlink:href="#linear-gradient-2"/><linearGradient id="linear-gradient-25" x1="375.251" y1="190.259" x2="375.251" y2="205.486" xlink:href="#linear-gradient-2"/><linearGradient id="linear-gradient-26" x1="375.251" y1="169.496" x2="375.251" y2="156.204" xlink:href="#linear-gradient-2"/><linearGradient id="linear-gradient-27" x1="412.024" y1="169.496" x2="412.024" y2="156.204" xlink:href="#linear-gradient-2"/></defs><title>Acluster_machine</title><rect class="cls-1" x="5.939" y="5.939" width="1166.121" height="380.875" rx="24.044"/><path class="cls-2" d="M1148.017,5.939a24.044,24.044,0,0,1,24.044,24.044V362.77a24.044,24.044,0,0,1-24.044,24.044H29.983A24.044,24.044,0,0,1,5.939,362.77V29.983A24.044,24.044,0,0,1,29.983,5.939H1148.017m0-5.939H29.983A30.017,30.017,0,0,0,0,29.983V362.77a30.017,30.017,0,0,0,29.983,29.984H1148.017A30.018,30.018,0,0,0,1178,362.77V29.983A30.017,30.017,0,0,0,1148.017,0Z"/><rect class="cls-3" x="305.815" y="170.194" width="22.629" height="2.404"/><rect class="cls-3" x="305.815" y="187.024" width="22.629" height="2.404"/><rect class="cls-3" x="97.848" y="265.789" width="187.541" height="19.235"/><path class="cls-3" d="M1053.52,55.774H825.159V75.009H1053.52a26.478,26.478,0,0,1,26.449,26.448V296.636a26.479,26.479,0,0,1-26.449,26.448H124.3a26.479,26.479,0,0,1-26.448-26.448V215.877A26.478,26.478,0,0,1,124.3,189.429H305.815V170.194H124.3a45.735,45.735,0,0,0-45.683,45.683v80.759A45.736,45.736,0,0,0,124.3,342.319H1053.52a45.736,45.736,0,0,0,45.684-45.683V101.457A45.735,45.735,0,0,0,1053.52,55.774Z"/><path class="cls-3" d="M1099.2,101.457a45.735,45.735,0,0,0-45.684-45.683V75.009a26.478,26.478,0,0,1,26.449,26.448Z"/><path class="cls-3" d="M1099.2,296.636a45.736,45.736,0,0,1-45.684,45.683V323.084a26.479,26.479,0,0,0,26.449-26.448Z"/><path class="cls-3" d="M78.613,296.636A45.736,45.736,0,0,0,124.3,342.319V323.084a26.479,26.479,0,0,1-26.448-26.448Z"/><path class="cls-3" d="M78.613,215.877A45.735,45.735,0,0,1,124.3,170.194v19.235a26.478,26.478,0,0,0-26.448,26.448Z"/><rect class="cls-3" x="768.498" y="55.774" width="56.661" height="19.235"/><rect class="cls-4" x="821.682" y="55.774" width="0.99" height="19.235"/><rect class="cls-4" x="824.665" y="55.774" width="0.99" height="19.235"/><rect class="cls-4" x="768.004" y="55.774" width="0.99" height="19.235"/><rect class="cls-4" x="818.7" y="55.774" width="0.99" height="19.235"/><rect class="cls-4" x="815.718" y="55.774" width="0.99" height="19.235"/><rect class="cls-4" x="812.735" y="55.774" width="0.99" height="19.235"/><rect class="cls-4" x="809.753" y="55.774" width="0.99" height="19.235"/><rect class="cls-4" x="806.772" y="55.774" width="0.99" height="19.235"/><rect class="cls-4" x="803.789" y="55.774" width="0.99" height="19.235"/><rect class="cls-4" x="800.807" y="55.774" width="0.99" height="19.235"/><rect class="cls-4" x="797.825" y="55.774" width="0.99" height="19.235"/><rect class="cls-4" x="794.842" y="55.774" width="0.99" height="19.235"/><rect class="cls-4" x="791.86" y="55.774" width="0.99" height="19.235"/><rect class="cls-4" x="788.879" y="55.774" width="0.99" height="19.235"/><rect class="cls-4" x="785.896" y="55.774" width="0.99" height="19.235"/><rect class="cls-4" x="782.914" y="55.774" width="0.99" height="19.235"/><rect class="cls-4" x="779.932" y="55.774" width="0.99" height="19.235"/><rect class="cls-4" x="776.949" y="55.774" width="0.99" height="19.235"/><rect class="cls-4" x="773.967" y="55.774" width="0.99" height="19.235"/><rect class="cls-4" x="770.985" y="55.774" width="0.99" height="19.235"/><rect class="cls-3" x="124.296" y="170.194" width="75.781" height="19.235"/><rect class="cls-4" x="181.395" y="170.194" width="0.99" height="19.235"/><rect class="cls-4" x="178.364" y="170.194" width="0.99" height="19.235"/><rect class="cls-4" x="175.332" y="170.194" width="0.99" height="19.235"/><rect class="cls-4" x="172.301" y="170.194" width="0.99" height="19.235"/><rect class="cls-4" x="169.27" y="170.194" width="0.99" height="19.235"/><rect class="cls-4" x="166.239" y="170.194" width="0.99" height="19.235"/><rect class="cls-4" x="163.207" y="170.194" width="0.99" height="19.235"/><rect class="cls-4" x="160.176" y="170.194" width="0.99" height="19.235"/><rect class="cls-4" x="157.145" y="170.194" width="0.99" height="19.235"/><rect class="cls-4" x="154.114" y="170.194" width="0.99" height="19.235"/><rect class="cls-4" x="151.082" y="170.194" width="0.99" height="19.235"/><rect class="cls-4" x="148.051" y="170.194" width="0.99" height="19.235"/><rect class="cls-4" x="145.02" y="170.194" width="0.99" height="19.235"/><rect class="cls-4" x="141.989" y="170.194" width="0.99" height="19.235"/><rect class="cls-4" x="138.958" y="170.194" width="0.99" height="19.235"/><rect class="cls-4" x="135.926" y="170.194" width="0.99" height="19.235"/><rect class="cls-4" x="132.895" y="170.194" width="0.99" height="19.235"/><rect class="cls-4" x="129.864" y="170.194" width="0.99" height="19.235"/><rect class="cls-4" x="126.833" y="170.194" width="0.99" height="19.235"/><rect class="cls-4" x="123.802" y="170.194" width="0.99" height="19.235"/><rect class="cls-4" x="184.426" y="170.194" width="0.99" height="19.235"/><rect class="cls-4" x="187.457" y="170.194" width="0.99" height="19.235"/><rect class="cls-4" x="190.489" y="170.194" width="0.99" height="19.235"/><rect class="cls-4" x="193.52" y="170.194" width="0.99" height="19.235"/><rect class="cls-4" x="196.551" y="170.194" width="0.99" height="19.235"/><rect class="cls-4" x="199.582" y="170.194" width="0.99" height="19.235"/><rect class="cls-3" x="47.851" y="246.639" width="80.759" height="19.235" transform="translate(344.487 168.025) rotate(90)"/><rect class="cls-4" x="78.614" y="272.212" width="19.235" height="0.99"/><rect class="cls-4" x="78.614" y="269.221" width="19.235" height="0.99"/><rect class="cls-4" x="78.614" y="266.23" width="19.235" height="0.99"/><rect class="cls-4" x="78.614" y="263.239" width="19.235" height="0.99"/><rect class="cls-4" x="78.614" y="260.248" width="19.235" height="0.99"/><rect class="cls-4" x="78.614" y="257.257" width="19.235" height="0.99"/><rect class="cls-4" x="78.614" y="254.266" width="19.235" height="0.99"/><rect class="cls-4" x="78.614" y="251.274" width="19.235" height="0.99"/><rect class="cls-4" x="78.614" y="248.283" width="19.235" height="0.99"/><rect class="cls-4" x="78.614" y="245.292" width="19.235" height="0.99"/><rect class="cls-4" x="78.614" y="242.301" width="19.235" height="0.99"/><rect class="cls-4" x="78.614" y="239.31" width="19.235" height="0.99"/><rect class="cls-4" x="78.614" y="236.319" width="19.235" height="0.99"/><rect class="cls-4" x="78.614" y="233.328" width="19.235" height="0.99"/><rect class="cls-4" x="78.614" y="230.337" width="19.235" height="0.99"/><rect class="cls-4" x="78.614" y="227.346" width="19.235" height="0.99"/><rect class="cls-4" x="78.614" y="224.355" width="19.235" height="0.99"/><rect class="cls-4" x="78.614" y="221.364" width="19.235" height="0.99"/><rect class="cls-4" x="78.614" y="218.373" width="19.235" height="0.99"/><rect class="cls-4" x="78.614" y="215.382" width="19.235" height="0.99"/><rect class="cls-4" x="78.614" y="275.203" width="19.235" height="0.99"/><rect class="cls-4" x="78.614" y="278.194" width="19.235" height="0.99"/><rect class="cls-4" x="78.614" y="281.185" width="19.235" height="0.99"/><rect class="cls-4" x="78.614" y="284.176" width="19.235" height="0.99"/><rect class="cls-4" x="78.614" y="287.167" width="19.235" height="0.99"/><rect class="cls-4" x="78.614" y="290.159" width="19.235" height="0.99"/><rect class="cls-4" x="78.614" y="293.15" width="19.235" height="0.99"/><rect class="cls-4" x="78.614" y="296.141" width="19.235" height="0.99"/><rect class="cls-5" x="898.21" y="203.855" width="31.964" height="65.979"/><path class="cls-6" d="M929.679,204.35v64.989H898.705V204.35h30.974m.5-.5H898.21v65.979h31.964V203.855Z"/><path class="cls-3" d="M898.21,269.834h31.964a0,0,0,0,1,0,0v0a4.667,4.667,0,0,1-4.667,4.667H902.877a4.667,4.667,0,0,1-4.667-4.667v0A0,0,0,0,1,898.21,269.834Z"/><polygon class="cls-7" points="930.174 203.855 898.21 203.855 895.806 189.429 932.578 189.429 930.174 203.855"/><rect class="cls-5" x="898.21" y="89.789" width="31.964" height="65.979" transform="translate(1828.384 245.556) rotate(180)"/><path class="cls-6" d="M929.679,90.284v64.988H898.705V90.284h30.974m.5-.5H898.21v65.978h31.964V89.789Z"/><path class="cls-3" d="M898.21,85.121h31.964a0,0,0,0,1,0,0v0a4.667,4.667,0,0,1-4.667,4.667H902.877a4.667,4.667,0,0,1-4.667-4.667v0A0,0,0,0,1,898.21,85.121Z" transform="translate(1828.384 174.91) rotate(-180)"/><polygon class="cls-8" points="898.21 155.767 930.174 155.767 932.578 170.194 895.806 170.194 898.21 155.767"/><rect class="cls-9" x="846.12" y="203.855" width="31.964" height="65.979"/><path class="cls-6" d="M877.589,204.35v64.989H846.615V204.35h30.974m.495-.5H846.12v65.979h31.964V203.855Z"/><path class="cls-3" d="M846.12,269.834h31.964a0,0,0,0,1,0,0v0a4.667,4.667,0,0,1-4.667,4.667H850.787a4.667,4.667,0,0,1-4.667-4.667v0a0,0,0,0,1,0,0Z"/><polygon class="cls-10" points="878.084 203.855 846.12 203.855 843.715 189.429 880.488 189.429 878.084 203.855"/><rect class="cls-11" x="809.347" y="203.855" width="31.964" height="65.979"/><path class="cls-6" d="M840.816,204.35v64.989H809.842V204.35h30.974m.5-.5H809.347v65.979h31.964V203.855Z"/><path class="cls-3" d="M809.347,269.834h31.964a0,0,0,0,1,0,0v0a4.667,4.667,0,0,1-4.667,4.667H814.014a4.667,4.667,0,0,1-4.667-4.667v0A0,0,0,0,1,809.347,269.834Z"/><polygon class="cls-12" points="841.311 203.855 809.347 203.855 806.943 189.429 843.715 189.429 841.311 203.855"/><rect class="cls-11" x="809.347" y="89.789" width="31.964" height="65.979" transform="translate(1650.658 245.556) rotate(180)"/><path class="cls-6" d="M840.816,90.284v64.988H809.842V90.284h30.974m.5-.5H809.347v65.978h31.964V89.789Z"/><path class="cls-3" d="M809.347,85.121h31.964a0,0,0,0,1,0,0v0a4.667,4.667,0,0,1-4.667,4.667H814.014a4.667,4.667,0,0,1-4.667-4.667v0A0,0,0,0,1,809.347,85.121Z" transform="translate(1650.658 174.91) rotate(-180)"/><polygon class="cls-13" points="809.347 155.767 841.311 155.767 843.715 170.194 806.943 170.194 809.347 155.767"/><rect class="cls-4" x="846.12" y="89.789" width="31.964" height="65.979" transform="translate(1724.203 245.556) rotate(180)"/><path class="cls-6" d="M877.589,90.284v64.988H846.615V90.284h30.974m.495-.5H846.12v65.978h31.964V89.789Z"/><path class="cls-3" d="M846.12,85.121h31.964a0,0,0,0,1,0,0v0a4.667,4.667,0,0,1-4.667,4.667H850.787a4.667,4.667,0,0,1-4.667-4.667v0A0,0,0,0,1,846.12,85.121Z" transform="translate(1724.203 174.91) rotate(-180)"/><polygon class="cls-14" points="846.12 155.767 878.084 155.767 880.488 170.194 843.715 170.194 846.12 155.767"/><rect class="cls-11" x="756.104" y="203.855" width="31.964" height="65.979"/><path class="cls-6" d="M787.573,204.35v64.989H756.6V204.35h30.974m.5-.5H756.1v65.979h31.964V203.855Z"/><path class="cls-3" d="M756.1,269.834h31.964a0,0,0,0,1,0,0v0A4.667,4.667,0,0,1,783.4,274.5H760.771a4.667,4.667,0,0,1-4.667-4.667v0A0,0,0,0,1,756.1,269.834Z"/><polygon class="cls-15" points="788.068 203.855 756.104 203.855 753.7 189.429 790.472 189.429 788.068 203.855"/><rect class="cls-11" x="719.331" y="203.855" width="31.964" height="65.979"/><path class="cls-6" d="M750.8,204.35v64.989H719.826V204.35H750.8m.5-.5H719.331v65.979H751.3V203.855Z"/><path class="cls-3" d="M719.331,269.834H751.3a0,0,0,0,1,0,0v0a4.667,4.667,0,0,1-4.667,4.667H724a4.667,4.667,0,0,1-4.667-4.667v0a0,0,0,0,1,0,0Z"/><polygon class="cls-16" points="751.295 203.855 719.331 203.855 716.927 189.429 753.7 189.429 751.295 203.855"/><rect class="cls-11" x="719.331" y="89.789" width="31.964" height="65.979" transform="translate(1470.627 245.556) rotate(180)"/><path class="cls-6" d="M750.8,90.284v64.988H719.826V90.284H750.8m.5-.5H719.331v65.978H751.3V89.789Z"/><path class="cls-3" d="M719.331,85.121H751.3a0,0,0,0,1,0,0v0a4.667,4.667,0,0,1-4.667,4.667H724a4.667,4.667,0,0,1-4.667-4.667v0A0,0,0,0,1,719.331,85.121Z" transform="translate(1470.627 174.91) rotate(-180)"/><polygon class="cls-17" points="719.331 155.767 751.295 155.767 753.7 170.194 716.927 170.194 719.331 155.767"/><rect class="cls-11" x="756.104" y="89.789" width="31.964" height="65.979" transform="translate(1544.172 245.556) rotate(180)"/><path class="cls-6" d="M787.573,90.284v64.988H756.6V90.284h30.974m.5-.5H756.1v65.978h31.964V89.789Z"/><path class="cls-3" d="M756.1,85.121h31.964a0,0,0,0,1,0,0v0a4.667,4.667,0,0,1-4.667,4.667H760.771a4.667,4.667,0,0,1-4.667-4.667v0A0,0,0,0,1,756.1,85.121Z" transform="translate(1544.172 174.91) rotate(-180)"/><polygon class="cls-18" points="756.104 155.767 788.068 155.767 790.472 170.194 753.7 170.194 756.104 155.767"/><rect class="cls-11" x="666.089" y="203.855" width="31.964" height="65.979"/><path class="cls-6" d="M697.558,204.35v64.989H666.583V204.35h30.975m.5-.5H666.088v65.979h31.965V203.855Z"/><path class="cls-3" d="M666.089,269.834h31.964a0,0,0,0,1,0,0v0a4.667,4.667,0,0,1-4.667,4.667H670.756a4.667,4.667,0,0,1-4.667-4.667v0a0,0,0,0,1,0,0Z"/><polygon class="cls-19" points="698.053 203.855 666.089 203.855 663.684 189.429 700.457 189.429 698.053 203.855"/><rect class="cls-11" x="629.316" y="203.855" width="31.964" height="65.979"/><path class="cls-6" d="M660.785,204.35v64.989H629.811V204.35h30.974m.5-.5H629.316v65.979H661.28V203.855Z"/><path class="cls-3" d="M629.316,269.834H661.28a0,0,0,0,1,0,0v0a4.667,4.667,0,0,1-4.667,4.667H633.983a4.667,4.667,0,0,1-4.667-4.667v0A0,0,0,0,1,629.316,269.834Z"/><polygon class="cls-20" points="661.28 203.855 629.316 203.855 626.911 189.429 663.684 189.429 661.28 203.855"/><rect class="cls-11" x="629.316" y="89.789" width="31.964" height="65.979" transform="translate(1290.596 245.556) rotate(180)"/><path class="cls-6" d="M660.785,90.284v64.988H629.811V90.284h30.974m.5-.5H629.316v65.978H661.28V89.789Z"/><path class="cls-3" d="M629.316,85.121H661.28a0,0,0,0,1,0,0v0a4.667,4.667,0,0,1-4.667,4.667H633.983a4.667,4.667,0,0,1-4.667-4.667v0A0,0,0,0,1,629.316,85.121Z" transform="translate(1290.596 174.91) rotate(-180)"/><polygon class="cls-21" points="629.316 155.767 661.28 155.767 663.684 170.194 626.911 170.194 629.316 155.767"/><rect class="cls-11" x="666.089" y="89.789" width="31.964" height="65.979" transform="translate(1364.141 245.556) rotate(180)"/><path class="cls-6" d="M697.558,90.284v64.988H666.583V90.284h30.975m.5-.5H666.088v65.978h31.965V89.789Z"/><path class="cls-3" d="M666.089,85.121h31.964a0,0,0,0,1,0,0v0a4.667,4.667,0,0,1-4.667,4.667H670.756a4.667,4.667,0,0,1-4.667-4.667v0a0,0,0,0,1,0,0Z" transform="translate(1364.141 174.91) rotate(-180)"/><polygon class="cls-22" points="666.089 155.767 698.053 155.767 700.457 170.194 663.684 170.194 666.089 155.767"/><rect class="cls-11" x="576.073" y="203.855" width="31.964" height="65.979"/><path class="cls-6" d="M607.542,204.35v64.989H576.568V204.35h30.974m.5-.5H576.073v65.979h31.964V203.855Z"/><path class="cls-3" d="M576.073,269.834h31.964a0,0,0,0,1,0,0v0a4.667,4.667,0,0,1-4.667,4.667H580.74a4.667,4.667,0,0,1-4.667-4.667v0A0,0,0,0,1,576.073,269.834Z"/><polygon class="cls-23" points="608.037 203.855 576.073 203.855 573.669 189.429 610.441 189.429 608.037 203.855"/><rect class="cls-11" x="539.3" y="203.855" width="31.964" height="65.979"/><path class="cls-6" d="M570.769,204.35v64.989H539.795V204.35h30.974m.5-.5H539.3v65.979h31.964V203.855Z"/><path class="cls-3" d="M539.3,269.834h31.964a0,0,0,0,1,0,0v0A4.667,4.667,0,0,1,566.6,274.5H543.967a4.667,4.667,0,0,1-4.667-4.667v0a0,0,0,0,1,0,0Z"/><polygon class="cls-24" points="571.264 203.855 539.3 203.855 536.896 189.429 573.669 189.429 571.264 203.855"/><rect class="cls-11" x="539.3" y="89.789" width="31.964" height="65.979" transform="translate(1110.564 245.556) rotate(180)"/><path class="cls-6" d="M570.769,90.284v64.988H539.795V90.284h30.974m.5-.5H539.3v65.978h31.964V89.789Z"/><path class="cls-3" d="M539.3,85.121h31.964a0,0,0,0,1,0,0v0a4.667,4.667,0,0,1-4.667,4.667H543.967a4.667,4.667,0,0,1-4.667-4.667v0a0,0,0,0,1,0,0Z" transform="translate(1110.564 174.91) rotate(-180)"/><polygon class="cls-25" points="539.3 155.767 571.264 155.767 573.669 170.194 536.896 170.194 539.3 155.767"/><rect class="cls-11" x="576.073" y="89.789" width="31.964" height="65.979" transform="translate(1184.11 245.556) rotate(180)"/><path class="cls-6" d="M607.542,90.284v64.988H576.568V90.284h30.974m.5-.5H576.073v65.978h31.964V89.789Z"/><path class="cls-3" d="M576.073,85.121h31.964a0,0,0,0,1,0,0v0a4.667,4.667,0,0,1-4.667,4.667H580.74a4.667,4.667,0,0,1-4.667-4.667v0A0,0,0,0,1,576.073,85.121Z" transform="translate(1184.11 174.91) rotate(-180)"/><polygon class="cls-26" points="576.073 155.767 608.037 155.767 610.441 170.194 573.669 170.194 576.073 155.767"/><rect class="cls-11" x="486.057" y="203.855" width="31.964" height="65.979"/><path class="cls-6" d="M517.526,204.35v64.989H486.552V204.35h30.974m.5-.5H486.057v65.979h31.964V203.855Z"/><path class="cls-3" d="M486.057,269.834h31.964a0,0,0,0,1,0,0v0a4.667,4.667,0,0,1-4.667,4.667H490.725a4.667,4.667,0,0,1-4.667-4.667v0A0,0,0,0,1,486.057,269.834Z"/><polygon class="cls-27" points="518.021 203.855 486.057 203.855 483.653 189.429 520.426 189.429 518.021 203.855"/><rect class="cls-11" x="449.285" y="203.855" width="31.964" height="65.979"/><path class="cls-6" d="M480.754,204.35v64.989H449.78V204.35h30.974m.5-.5H449.285v65.979h31.964V203.855Z"/><path class="cls-3" d="M449.285,269.834h31.964a0,0,0,0,1,0,0v0a4.667,4.667,0,0,1-4.667,4.667H453.952a4.667,4.667,0,0,1-4.667-4.667v0a0,0,0,0,1,0,0Z"/><polygon class="cls-28" points="481.249 203.855 449.285 203.855 446.88 189.429 483.653 189.429 481.249 203.855"/><rect class="cls-11" x="449.285" y="89.789" width="31.964" height="65.979" transform="translate(930.533 245.556) rotate(180)"/><path class="cls-6" d="M480.754,90.284v64.988H449.78V90.284h30.974m.5-.5H449.285v65.978h31.964V89.789Z"/><path class="cls-3" d="M449.285,85.121h31.964a0,0,0,0,1,0,0v0a4.667,4.667,0,0,1-4.667,4.667H453.952a4.667,4.667,0,0,1-4.667-4.667v0A0,0,0,0,1,449.285,85.121Z" transform="translate(930.533 174.91) rotate(-180)"/><polygon class="cls-29" points="449.285 155.767 481.249 155.767 483.653 170.194 446.88 170.194 449.285 155.767"/><rect class="cls-11" x="486.057" y="89.789" width="31.964" height="65.979" transform="translate(1004.079 245.556) rotate(180)"/><path class="cls-6" d="M517.526,90.284v64.988H486.552V90.284h30.974m.5-.5H486.057v65.978h31.964V89.789Z"/><path class="cls-3" d="M486.057,85.121h31.964a0,0,0,0,1,0,0v0a4.667,4.667,0,0,1-4.667,4.667H490.725a4.667,4.667,0,0,1-4.667-4.667v0a0,0,0,0,1,0,0Z" transform="translate(1004.079 174.91) rotate(-180)"/><polygon class="cls-30" points="486.057 155.767 518.021 155.767 520.426 170.194 483.653 170.194 486.057 155.767"/><rect class="cls-11" x="396.042" y="206.259" width="31.964" height="63.574"/><path class="cls-6" d="M427.511,206.754v62.585H396.537V206.754h30.974m.495-.5H396.042v63.575h31.964V206.259Z"/><path class="cls-3" d="M396.042,269.834h31.964a0,0,0,0,1,0,0v0a4.667,4.667,0,0,1-4.667,4.667H400.709a4.667,4.667,0,0,1-4.667-4.667v0A0,0,0,0,1,396.042,269.834Z"/><polygon class="cls-31" points="428.006 206.259 396.042 206.259 393.637 189.429 430.41 189.429 428.006 206.259"/><rect class="cls-11" x="359.269" y="206.259" width="31.964" height="63.574"/><path class="cls-6" d="M390.738,206.754v62.585H359.764V206.754h30.974m.5-.5H359.269v63.575h31.964V206.259Z"/><path class="cls-3" d="M359.269,269.834h31.964a0,0,0,0,1,0,0v0a4.667,4.667,0,0,1-4.667,4.667H363.936a4.667,4.667,0,0,1-4.667-4.667v0A0,0,0,0,1,359.269,269.834Z"/><polygon class="cls-32" points="391.233 206.259 359.269 206.259 356.865 189.429 393.637 189.429 391.233 206.259"/><rect class="cls-11" x="359.269" y="89.789" width="31.964" height="65.979" transform="translate(750.502 245.556) rotate(180)"/><path class="cls-6" d="M390.738,90.284v64.988H359.764V90.284h30.974m.5-.5H359.269v65.978h31.964V89.789Z"/><path class="cls-3" d="M359.269,85.121h31.964a0,0,0,0,1,0,0v0a4.667,4.667,0,0,1-4.667,4.667H363.936a4.667,4.667,0,0,1-4.667-4.667v0a0,0,0,0,1,0,0Z" transform="translate(750.502 174.91) rotate(-180)"/><polygon class="cls-33" points="359.269 155.767 391.233 155.767 393.637 170.194 356.865 170.194 359.269 155.767"/><rect class="cls-11" x="396.042" y="89.789" width="31.964" height="65.979" transform="translate(824.048 245.556) rotate(180)"/><path class="cls-6" d="M427.511,90.284v64.988H396.537V90.284h30.974m.495-.5H396.042v65.978h31.964V89.789Z"/><path class="cls-3" d="M396.042,85.121h31.964a0,0,0,0,1,0,0v0a4.667,4.667,0,0,1-4.667,4.667H400.709a4.667,4.667,0,0,1-4.667-4.667v0A0,0,0,0,1,396.042,85.121Z" transform="translate(824.048 174.91) rotate(-180)"/><polygon class="cls-34" points="396.042 155.767 428.006 155.767 430.41 170.194 393.637 170.194 396.042 155.767"/><path class="cls-6" d="M284.768,209.159H243.753a7.009,7.009,0,0,1-7-7V157.464a7.009,7.009,0,0,1,7-7h41.015a7.008,7.008,0,0,1,7,7v44.694A7.009,7.009,0,0,1,284.768,209.159Zm-41.015-56.715a5.026,5.026,0,0,0-5.021,5.02v44.694a5.027,5.027,0,0,0,5.021,5.021h41.015a5.028,5.028,0,0,0,5.022-5.021V157.464a5.027,5.027,0,0,0-5.022-5.02Z"/><path class="cls-6" d="M258.007,144.241h12.508a3.607,3.607,0,0,1,3.607,3.607v3.607a0,0,0,0,1,0,0H254.4a0,0,0,0,1,0,0v-3.607a3.607,3.607,0,0,1,3.607-3.607Z"/><rect class="cls-35" x="1079.968" y="100.962" width="19.236" height="0.99"/><rect class="cls-35" x="1079.968" y="120.48" width="19.236" height="0.99"/><rect class="cls-35" x="1079.968" y="139.998" width="19.236" height="0.99"/><rect class="cls-35" x="1079.968" y="159.515" width="19.236" height="0.99"/><rect class="cls-35" x="1079.968" y="179.033" width="19.236" height="0.99"/><rect class="cls-35" x="1079.968" y="198.551" width="19.236" height="0.99"/><rect class="cls-35" x="1079.968" y="218.069" width="19.236" height="0.99"/><rect class="cls-35" x="1079.968" y="237.587" width="19.236" height="0.99"/><rect class="cls-35" x="1079.968" y="257.105" width="19.236" height="0.99"/><rect class="cls-35" x="1079.968" y="276.623" width="19.236" height="0.99"/><rect class="cls-35" x="1079.968" y="296.141" width="19.236" height="0.99"/><rect class="cls-35" x="706.684" y="323.084" width="0.99" height="19.235"/><rect class="cls-35" x="1002.388" y="55.774" width="0.99" height="19.235"/><rect class="cls-35" x="271.551" y="265.789" width="0.99" height="19.235"/><rect class="cls-35" x="257.294" y="265.789" width="0.99" height="19.235"/><rect class="cls-35" x="214.706" y="265.789" width="0.99" height="19.235"/><rect class="cls-35" x="199.9" y="265.789" width="0.99" height="19.235"/><rect class="cls-35" x="171.935" y="265.789" width="0.99" height="19.235"/><rect class="cls-35" x="157.861" y="265.789" width="0.99" height="19.235"/><rect class="cls-35" x="139.4" y="265.789" width="0.99" height="19.235"/><rect class="cls-35" x="121.487" y="265.789" width="0.99" height="19.235"/><rect class="cls-35" x="103.392" y="265.789" width="0.99" height="19.235"/><rect class="cls-35" x="658.113" y="323.084" width="0.99" height="19.235"/><rect class="cls-35" x="640.089" y="323.084" width="0.99" height="19.235"/><rect class="cls-35" x="622.064" y="323.084" width="0.99" height="19.235"/><rect class="cls-35" x="604.04" y="323.084" width="0.99" height="19.235"/><rect class="cls-35" x="586.016" y="323.084" width="0.99" height="19.235"/><rect class="cls-35" x="567.991" y="323.084" width="0.99" height="19.235"/><rect class="cls-35" x="549.967" y="323.084" width="0.99" height="19.235"/><rect class="cls-35" x="531.942" y="323.084" width="0.99" height="19.235"/><rect class="cls-35" x="513.917" y="323.084" width="0.99" height="19.235"/><rect class="cls-35" x="495.893" y="323.084" width="0.99" height="19.235"/><rect class="cls-35" x="477.868" y="323.084" width="0.99" height="19.235"/><rect class="cls-35" x="459.844" y="323.084" width="0.99" height="19.235"/><rect class="cls-35" x="175.04" y="323.084" width="0.99" height="19.235"/><rect class="cls-3" x="328.444" y="170.194" width="607.907" height="19.235"/><rect class="cls-11" x="961.277" y="166.587" width="24.044" height="26.448" rx="3.783"/><path class="cls-6" d="M981.538,167.082a3.292,3.292,0,0,1,3.288,3.288v18.883a3.292,3.292,0,0,1-3.288,3.287H965.06a3.292,3.292,0,0,1-3.288-3.287V170.37a3.292,3.292,0,0,1,3.288-3.288h16.478m0-.5H965.06a3.783,3.783,0,0,0-3.783,3.783v18.883a3.783,3.783,0,0,0,3.783,3.782h16.478a3.783,3.783,0,0,0,3.783-3.782V170.37a3.783,3.783,0,0,0-3.783-3.783Z"/><rect class="cls-3" x="936.351" y="170.194" width="24.926" height="2.404"/><rect class="cls-3" x="936.351" y="187.024" width="24.926" height="2.404"/><rect class="cls-35" x="706.684" y="323.084" width="0.99" height="19.235"/><rect class="cls-35" x="1002.388" y="55.774" width="0.99" height="19.235"/><rect class="cls-35" x="271.551" y="265.789" width="0.99" height="19.235"/><rect class="cls-35" x="257.294" y="265.789" width="0.99" height="19.235"/><rect class="cls-35" x="214.706" y="265.789" width="0.99" height="19.235"/><rect class="cls-35" x="199.9" y="265.789" width="0.99" height="19.235"/><rect class="cls-35" x="171.935" y="265.789" width="0.99" height="19.235"/><rect class="cls-35" x="157.861" y="265.789" width="0.99" height="19.235"/><rect class="cls-35" x="139.4" y="265.789" width="0.99" height="19.235"/><rect class="cls-35" x="121.487" y="265.789" width="0.99" height="19.235"/><rect class="cls-35" x="103.392" y="265.789" width="0.99" height="19.235"/><rect class="cls-35" x="658.113" y="323.084" width="0.99" height="19.235"/><rect class="cls-35" x="640.089" y="323.084" width="0.99" height="19.235"/><rect class="cls-35" x="622.064" y="323.084" width="0.99" height="19.235"/><rect class="cls-35" x="604.04" y="323.084" width="0.99" height="19.235"/><rect class="cls-35" x="586.016" y="323.084" width="0.99" height="19.235"/><rect class="cls-35" x="567.991" y="323.084" width="0.99" height="19.235"/><rect class="cls-35" x="549.967" y="323.084" width="0.99" height="19.235"/><rect class="cls-35" x="531.942" y="323.084" width="0.99" height="19.235"/><rect class="cls-35" x="513.917" y="323.084" width="0.99" height="19.235"/><rect class="cls-35" x="495.893" y="323.084" width="0.99" height="19.235"/><rect class="cls-35" x="477.868" y="323.084" width="0.99" height="19.235"/><rect class="cls-35" x="459.844" y="323.084" width="0.99" height="19.235"/><rect class="cls-35" x="175.04" y="323.084" width="0.99" height="19.235"/><rect class="cls-35" x="927.73" y="170.194" width="0.99" height="19.235"/><rect class="cls-35" x="904.932" y="170.194" width="0.99" height="19.235"/><rect class="cls-35" x="882.73" y="170.194" width="0.99" height="19.235"/><rect class="cls-35" x="852.711" y="170.194" width="0.99" height="19.235"/><rect class="cls-35" x="830.196" y="170.194" width="0.99" height="19.235"/><rect class="cls-35" x="770.359" y="170.194" width="0.99" height="19.235"/><rect class="cls-35" x="747.44" y="170.194" width="0.99" height="19.235"/><rect class="cls-35" x="724.925" y="170.194" width="0.99" height="19.235"/><rect class="cls-35" x="703.018" y="170.194" width="0.99" height="19.235"/><rect class="cls-35" x="664.885" y="170.194" width="0.99" height="19.235"/><rect class="cls-35" x="642.573" y="170.194" width="0.99" height="19.235"/><rect class="cls-35" x="619.855" y="170.194" width="0.99" height="19.235"/><rect class="cls-35" x="590.242" y="170.194" width="0.99" height="19.235"/><rect class="cls-35" x="567.524" y="170.194" width="0.99" height="19.235"/><rect class="cls-35" x="545.415" y="170.194" width="0.99" height="19.235"/><rect class="cls-35" x="522.901" y="170.194" width="0.99" height="19.235"/><rect class="cls-35" x="507.688" y="170.194" width="0.99" height="19.235"/><rect class="cls-35" x="484.97" y="170.194" width="0.99" height="19.235"/><rect class="cls-35" x="462.658" y="170.194" width="0.99" height="19.235"/><rect class="cls-35" x="440.144" y="170.194" width="0.99" height="19.235"/><rect class="cls-35" x="410.124" y="170.194" width="0.99" height="19.235"/><rect class="cls-36" x="418.133" y="170.194" width="0.99" height="19.235"/><rect class="cls-36" x="597.622" y="170.194" width="0.99" height="19.235"/><rect class="cls-36" x="777.712" y="170.194" width="0.99" height="19.235"/><rect class="cls-36" x="807.69" y="170.194" width="0.99" height="19.235"/><rect class="cls-35" x="379.901" y="170.194" width="0.99" height="19.235"/><rect class="cls-35" x="358.198" y="170.194" width="0.99" height="19.235"/><rect class="cls-35" x="335.346" y="170.194" width="0.99" height="19.235"/><path class="cls-37" d="M338.872,157.392H353.3v-7.257H338.872Z"/><polygon class="cls-37" points="246.197 144.753 246.197 144.753 231.771 144.753 231.771 144.753 231.771 159.179 246.197 159.179 246.197 144.753"/><polygon class="cls-37" points="284.808 144.753 284.808 159.179 299.235 159.179 299.235 144.753 299.235 144.753 284.808 144.753 284.808 144.753"/><rect class="cls-37" x="387.666" y="80.242" width="14.426" height="14.426"/><polygon class="cls-37" points="477.682 80.242 477.682 94.668 477.682 94.668 492.108 94.668 492.108 80.242 477.682 80.242 477.682 80.242"/><rect class="cls-37" x="567.697" y="80.242" width="14.426" height="14.426"/><polygon class="cls-37" points="657.713 80.242 657.713 94.668 672.139 94.668 672.139 80.242 672.139 80.242 657.713 80.242"/><rect class="cls-37" x="747.729" y="80.242" width="14.426" height="14.426"/><polygon class="cls-37" points="837.744 80.242 837.744 94.668 837.744 94.668 852.17 94.668 852.17 80.242 837.744 80.242 837.744 80.242"/><polygon class="cls-37" points="931.416 80.242 931.416 94.668 945.842 94.668 945.842 94.668 945.842 80.242 945.842 80.242 931.416 80.242"/><polygon class="cls-37" points="931.416 135.684 931.416 150.11 931.416 150.11 945.842 150.11 945.842 135.684 945.842 135.684 931.416 135.684"/><polygon class="cls-37" points="931.416 210.052 931.416 224.478 931.416 224.478 945.842 224.478 945.842 224.478 945.842 224.478 945.842 210.052 945.842 210.052 931.416 210.052"/><polygon class="cls-37" points="945.842 264.954 931.416 264.954 931.416 264.954 931.416 279.38 945.842 279.38 945.842 279.38 945.842 264.954 945.842 264.954 945.842 264.954"/><polygon class="cls-37" points="65.429 251.362 65.429 265.789 65.429 265.789 79.855 265.789 79.855 265.789 79.855 251.362 79.855 251.362 65.429 251.362 65.429 251.362"/><rect class="cls-37" x="279.613" y="277.932" width="14.426" height="14.426"/><polygon class="cls-37" points="387.666 264.954 387.666 279.38 402.093 279.38 402.093 264.954 402.093 264.954 387.666 264.954 387.666 264.954"/><polygon class="cls-37" points="477.682 279.38 477.682 279.38 492.108 279.38 492.108 264.954 492.108 264.954 477.682 264.954 477.682 279.38"/><polygon class="cls-37" points="567.697 264.954 567.697 279.38 582.124 279.38 582.124 264.954 582.124 264.954 567.697 264.954 567.697 264.954"/><polygon class="cls-37" points="672.139 264.954 657.713 264.954 657.713 264.954 657.713 279.38 672.139 279.38 672.139 264.954 672.139 264.954 672.139 264.954"/><polygon class="cls-37" points="747.729 264.954 747.729 279.38 762.155 279.38 762.155 264.954 762.155 264.954 747.729 264.954 747.729 264.954"/><polygon class="cls-37" points="837.744 264.954 837.744 264.954 837.744 279.38 837.744 279.38 852.17 279.38 852.17 264.954 852.17 264.954 837.744 264.954 837.744 264.954"/><rect class="cls-37" x="284.808" y="200.955" width="14.426" height="14.426"/><rect class="cls-37" x="231.771" y="200.955" width="14.426" height="14.426"/><path class="cls-37" d="M265.5,127.162a6,6,0,0,0-6,6c0,3.708,5.564,10.928,5.8,11.234l.2.252.195-.252c.237-.306,5.8-7.526,5.8-11.234A6,6,0,0,0,265.5,127.162Z"/><path class="cls-37" d="M969.732,167.789a7.24,7.24,0,0,0-.146-1.453,7.216,7.216,0,0,0-13.713-1.354,7.1,7.1,0,0,0-.42,1.354,7.24,7.24,0,0,0-.147,1.453h0a7.189,7.189,0,0,0,.871,3.439q.166.306.361.594a7.281,7.281,0,0,0,.881,1.068q.245.245.512.465a7.214,7.214,0,0,0,9.176,0q.268-.22.513-.465a7.274,7.274,0,0,0,.88-1.068q.195-.288.362-.594a7.189,7.189,0,0,0,.87-3.439Z"/><path class="cls-37" d="M325.778,166.336a7.1,7.1,0,0,0-.42-1.354,7.212,7.212,0,0,0-13.859,2.807h0a7.189,7.189,0,0,0,.87,3.439c.111.2.232.4.361.594a7.345,7.345,0,0,0,.881,1.068q.245.245.513.465a7.214,7.214,0,0,0,9.176,0q.267-.22.512-.465a7.281,7.281,0,0,0,.881-1.068c.129-.192.25-.39.361-.594a7.189,7.189,0,0,0,.871-3.439h0A7.24,7.24,0,0,0,325.778,166.336Z"/><path class="cls-37" d="M257.9,166.336a7.214,7.214,0,0,0-14.133,0,7.24,7.24,0,0,0-.147,1.453h0a7.189,7.189,0,0,0,.871,3.439q.166.306.361.594a7.218,7.218,0,0,0,.881,1.068q.244.245.512.465a7.214,7.214,0,0,0,9.176,0c.179-.147.349-.3.513-.465a7.345,7.345,0,0,0,.881-1.068c.129-.192.25-.39.361-.594a7.189,7.189,0,0,0,.87-3.439h0A7.24,7.24,0,0,0,257.9,166.336Z"/><path class="cls-37" d="M338.872,216v7.257H353.3V216Z"/><rect class="cls-37" x="369.28" y="159.402" width="14.426" height="7.257"/><path class="cls-37" d="M369.28,193.013v7.257h14.426v-7.257Z"/><path class="cls-37" d="M406.053,159.4v7.207h0v.051h14.426V159.4Z"/><path class="cls-37" d="M406.053,193.013v7.207h0v.05h14.426v-7.257Z"/><path class="cls-37" d="M459.3,159.4v7.258h14.426V159.4Z"/><path class="cls-37" d="M459.3,193.013v7.257h14.426v-7.257Z"/><path class="cls-37" d="M496.068,159.4v7.258H510.5V159.4Z"/><path class="cls-37" d="M496.068,193.013v7.257H510.5v-7.257Z"/><path class="cls-37" d="M549.311,200.27h14.426v-7.257H549.311Z"/><path class="cls-37" d="M549.311,166.66h14.426V159.4H549.311Z"/><path class="cls-37" d="M729.342,200.27h14.426v-7.257H729.342Z"/><path class="cls-37" d="M729.342,166.66h14.426V159.4H729.342Z"/><path class="cls-37" d="M586.084,166.66H600.51V159.4H586.084Z"/><path class="cls-37" d="M586.084,200.27H600.51v-7.257H586.084Z"/><path class="cls-37" d="M639.327,166.66h14.426V159.4H639.327Z"/><path class="cls-37" d="M639.327,200.27h14.426v-7.257H639.327Z"/><path class="cls-37" d="M676.1,159.4v7.258h14.427V159.4Z"/><path class="cls-37" d="M676.1,193.013v7.257h14.427v-7.257Z"/><path class="cls-37" d="M766.115,166.66h14.426V159.4H766.115Z"/><path class="cls-37" d="M766.115,200.27h14.426v-7.257H766.115Z"/><path class="cls-37" d="M819.358,159.4v7.207h0v.051h14.426V159.4Z"/><path class="cls-37" d="M819.358,193.013v7.207h0v.05h14.426v-7.257Z"/><path class="cls-37" d="M856.13,166.66h14.427V159.4H856.13Z"/><path class="cls-37" d="M856.13,200.27h14.427v-7.257H856.13Z"/><path class="cls-37" d="M909.373,166.66H923.8V159.4H909.373Z"/><path class="cls-37" d="M909.373,200.27H923.8v-7.257H909.373Z"/></svg>