<svg id="Layer_1" data-name="Layer 1" xmlns="http://www.w3.org/2000/svg" xmlns:xlink="http://www.w3.org/1999/xlink" viewBox="0 0 1178 392.754"><defs><style>.cls-1{fill:none;}.cls-2{fill:url(#linear-gradient);}.cls-3{fill:#58595b;}.cls-38,.cls-4{fill:#231f20;}.cls-4{opacity:0.35;}.cls-5{fill:#fff;}.cls-6{fill:#27e22b;}.cls-7{fill:#808184;}.cls-8{fill:url(#linear-gradient-2);}.cls-9{fill:url(#linear-gradient-3);}.cls-10{fill:#4d80ff;}.cls-11{fill:url(#linear-gradient-4);}.cls-12{fill:#6d6e70;}.cls-13{fill:url(#linear-gradient-5);}.cls-14{fill:url(#linear-gradient-6);}.cls-15{fill:url(#linear-gradient-7);}.cls-16{fill:url(#linear-gradient-8);}.cls-17{fill:url(#linear-gradient-9);}.cls-18{fill:url(#linear-gradient-10);}.cls-19{fill:url(#linear-gradient-11);}.cls-20{fill:url(#linear-gradient-12);}.cls-21{fill:url(#linear-gradient-13);}.cls-22{fill:url(#linear-gradient-14);}.cls-23{fill:url(#linear-gradient-15);}.cls-24{fill:url(#linear-gradient-16);}.cls-25{fill:url(#linear-gradient-17);}.cls-26{fill:url(#linear-gradient-18);}.cls-27{fill:url(#linear-gradient-19);}.cls-28{fill:url(#linear-gradient-20);}.cls-29{fill:url(#linear-gradient-21);}.cls-30{fill:url(#linear-gradient-22);}.cls-31{fill:url(#linear-gradient-23);}.cls-32{fill:url(#linear-gradient-24);}.cls-33{fill:url(#linear-gradient-25);}.cls-34{fill:url(#linear-gradient-26);}.cls-35{fill:url(#linear-gradient-27);}.cls-36{fill:#e6e7e8;}.cls-37{fill:#ff7f00;}.cls-39{fill:#ff0;}.cls-40{clip-path:url(#clip-path);}.cls-41{clip-path:url(#clip-path-2);}.cls-42{clip-path:url(#clip-path-3);}.cls-43{fill:red;}</style><linearGradient id="linear-gradient" x1="588.511" y1="4.515" x2="589.483" y2="385.544" gradientUnits="userSpaceOnUse"><stop offset="0" stop-color="#e2f5ff"/><stop offset="1" stop-color="#bfd8ff"/></linearGradient><linearGradient id="linear-gradient-2" x1="914.192" y1="189.429" x2="914.192" y2="203.855" gradientUnits="userSpaceOnUse"><stop offset="0" stop-color="#bbbdbf"/><stop offset="1" stop-color="#e6e7e8"/></linearGradient><linearGradient id="linear-gradient-3" x1="914.192" y1="170.194" x2="914.192" y2="155.767" xlink:href="#linear-gradient-2"/><linearGradient id="linear-gradient-4" x1="862.102" y1="189.429" x2="862.102" y2="203.855" xlink:href="#linear-gradient-2"/><linearGradient id="linear-gradient-5" x1="825.329" y1="189.429" x2="825.329" y2="203.855" xlink:href="#linear-gradient-2"/><linearGradient id="linear-gradient-6" x1="825.329" y1="170.194" x2="825.329" y2="155.767" xlink:href="#linear-gradient-2"/><linearGradient id="linear-gradient-7" x1="862.102" y1="170.194" x2="862.102" y2="155.767" xlink:href="#linear-gradient-2"/><linearGradient id="linear-gradient-8" x1="772.086" y1="189.429" x2="772.086" y2="203.855" xlink:href="#linear-gradient-2"/><linearGradient id="linear-gradient-9" x1="735.313" y1="189.429" x2="735.313" y2="203.855" xlink:href="#linear-gradient-2"/><linearGradient id="linear-gradient-10" x1="735.313" y1="170.194" x2="735.313" y2="155.767" xlink:href="#linear-gradient-2"/><linearGradient id="linear-gradient-11" x1="772.086" y1="170.194" x2="772.086" y2="155.767" xlink:href="#linear-gradient-2"/><linearGradient id="linear-gradient-12" x1="682.071" y1="189.429" x2="682.071" y2="203.855" xlink:href="#linear-gradient-2"/><linearGradient id="linear-gradient-13" x1="645.298" y1="189.429" x2="645.298" y2="203.855" xlink:href="#linear-gradient-2"/><linearGradient id="linear-gradient-14" x1="645.298" y1="170.194" x2="645.298" y2="155.767" xlink:href="#linear-gradient-2"/><linearGradient id="linear-gradient-15" x1="682.071" y1="170.194" x2="682.071" y2="155.767" xlink:href="#linear-gradient-2"/><linearGradient id="linear-gradient-16" x1="592.055" y1="189.429" x2="592.055" y2="203.855" xlink:href="#linear-gradient-2"/><linearGradient id="linear-gradient-17" x1="555.282" y1="189.429" x2="555.282" y2="203.855" xlink:href="#linear-gradient-2"/><linearGradient id="linear-gradient-18" x1="555.282" y1="170.194" x2="555.282" y2="155.767" xlink:href="#linear-gradient-2"/><linearGradient id="linear-gradient-19" x1="592.055" y1="170.194" x2="592.055" y2="155.767" xlink:href="#linear-gradient-2"/><linearGradient id="linear-gradient-20" x1="502.039" y1="189.429" x2="502.039" y2="203.855" xlink:href="#linear-gradient-2"/><linearGradient id="linear-gradient-21" x1="465.267" y1="189.429" x2="465.267" y2="203.855" xlink:href="#linear-gradient-2"/><linearGradient id="linear-gradient-22" x1="465.267" y1="170.194" x2="465.267" y2="155.767" xlink:href="#linear-gradient-2"/><linearGradient id="linear-gradient-23" x1="502.039" y1="170.194" x2="502.039" y2="155.767" xlink:href="#linear-gradient-2"/><linearGradient id="linear-gradient-24" x1="412.024" y1="189.838" x2="412.024" y2="205.749" xlink:href="#linear-gradient-2"/><linearGradient id="linear-gradient-25" x1="375.251" y1="190.259" x2="375.251" y2="205.486" xlink:href="#linear-gradient-2"/><linearGradient id="linear-gradient-26" x1="375.251" y1="169.496" x2="375.251" y2="156.204" xlink:href="#linear-gradient-2"/><linearGradient id="linear-gradient-27" x1="412.024" y1="169.496" x2="412.024" y2="156.204" xlink:href="#linear-gradient-2"/><clipPath id="clip-path"><circle class="cls-1" cx="961.277" cy="167.789" r="7.213"/></clipPath><clipPath id="clip-path-2"><circle class="cls-1" cx="317.47" cy="167.789" r="7.213"/></clipPath><clipPath id="clip-path-3"><circle class="cls-1" cx="249.591" cy="167.789" r="7.213"/></clipPath></defs><title>Acluster_machine</title><rect class="cls-2" x="5.939" y="5.939" width="1166.121" height="380.875" rx="24.044"/><path class="cls-3" d="M1148.017,5.939a24.044,24.044,0,0,1,24.044,24.044V362.77a24.044,24.044,0,0,1-24.044,24.044H29.983A24.044,24.044,0,0,1,5.939,362.77V29.983A24.044,24.044,0,0,1,29.983,5.939H1148.017m0-5.939H29.983A30.017,30.017,0,0,0,0,29.983V362.77a30.017,30.017,0,0,0,29.983,29.984H1148.017A30.018,30.018,0,0,0,1178,362.77V29.983A30.017,30.017,0,0,0,1148.017,0Z"/><rect class="cls-4" x="305.815" y="170.194" width="22.629" height="2.404"/><rect class="cls-4" x="305.815" y="187.024" width="22.629" height="2.404"/><rect class="cls-4" x="97.848" y="265.789" width="187.541" height="19.235"/><path class="cls-4" d="M1053.52,55.774H825.159V75.009H1053.52a26.478,26.478,0,0,1,26.449,26.448V296.636a26.479,26.479,0,0,1-26.449,26.448H124.3a26.479,26.479,0,0,1-26.448-26.448V215.877A26.478,26.478,0,0,1,124.3,189.429H305.815V170.194H124.3a45.735,45.735,0,0,0-45.683,45.683v80.759A45.736,45.736,0,0,0,124.3,342.319H1053.52a45.736,45.736,0,0,0,45.684-45.683V101.457A45.735,45.735,0,0,0,1053.52,55.774Z"/><path class="cls-4" d="M1099.2,101.457a45.735,45.735,0,0,0-45.684-45.683V75.009a26.478,26.478,0,0,1,26.449,26.448Z"/><path class="cls-4" d="M1099.2,296.636a45.736,45.736,0,0,1-45.684,45.683V323.084a26.479,26.479,0,0,0,26.449-26.448Z"/><path class="cls-4" d="M78.613,296.636A45.736,45.736,0,0,0,124.3,342.319V323.084a26.479,26.479,0,0,1-26.448-26.448Z"/><path class="cls-4" d="M78.613,215.877A45.735,45.735,0,0,1,124.3,170.194v19.235a26.478,26.478,0,0,0-26.448,26.448Z"/><rect class="cls-4" x="768.498" y="55.774" width="56.661" height="19.235"/><rect class="cls-5" x="821.682" y="55.774" width="0.99" height="19.235"/><rect class="cls-5" x="824.665" y="55.774" width="0.99" height="19.235"/><rect class="cls-5" x="768.004" y="55.774" width="0.99" height="19.235"/><rect class="cls-5" x="818.7" y="55.774" width="0.99" height="19.235"/><rect class="cls-5" x="815.718" y="55.774" width="0.99" height="19.235"/><rect class="cls-5" x="812.735" y="55.774" width="0.99" height="19.235"/><rect class="cls-5" x="809.753" y="55.774" width="0.99" height="19.235"/><rect class="cls-5" x="806.772" y="55.774" width="0.99" height="19.235"/><rect class="cls-5" x="803.789" y="55.774" width="0.99" height="19.235"/><rect class="cls-5" x="800.807" y="55.774" width="0.99" height="19.235"/><rect class="cls-5" x="797.825" y="55.774" width="0.99" height="19.235"/><rect class="cls-5" x="794.842" y="55.774" width="0.99" height="19.235"/><rect class="cls-5" x="791.86" y="55.774" width="0.99" height="19.235"/><rect class="cls-5" x="788.879" y="55.774" width="0.99" height="19.235"/><rect class="cls-5" x="785.896" y="55.774" width="0.99" height="19.235"/><rect class="cls-5" x="782.914" y="55.774" width="0.99" height="19.235"/><rect class="cls-5" x="779.932" y="55.774" width="0.99" height="19.235"/><rect class="cls-5" x="776.949" y="55.774" width="0.99" height="19.235"/><rect class="cls-5" x="773.967" y="55.774" width="0.99" height="19.235"/><rect class="cls-5" x="770.985" y="55.774" width="0.99" height="19.235"/><rect class="cls-4" x="124.296" y="170.194" width="75.781" height="19.235"/><rect class="cls-5" x="181.395" y="170.194" width="0.99" height="19.235"/><rect class="cls-5" x="178.364" y="170.194" width="0.99" height="19.235"/><rect class="cls-5" x="175.332" y="170.194" width="0.99" height="19.235"/><rect class="cls-5" x="172.301" y="170.194" width="0.99" height="19.235"/><rect class="cls-5" x="169.27" y="170.194" width="0.99" height="19.235"/><rect class="cls-5" x="166.239" y="170.194" width="0.99" height="19.235"/><rect class="cls-5" x="163.207" y="170.194" width="0.99" height="19.235"/><rect class="cls-5" x="160.176" y="170.194" width="0.99" height="19.235"/><rect class="cls-5" x="157.145" y="170.194" width="0.99" height="19.235"/><rect class="cls-5" x="154.114" y="170.194" width="0.99" height="19.235"/><rect class="cls-5" x="151.082" y="170.194" width="0.99" height="19.235"/><rect class="cls-5" x="148.051" y="170.194" width="0.99" height="19.235"/><rect class="cls-5" x="145.02" y="170.194" width="0.99" height="19.235"/><rect class="cls-5" x="141.989" y="170.194" width="0.99" height="19.235"/><rect class="cls-5" x="138.958" y="170.194" width="0.99" height="19.235"/><rect class="cls-5" x="135.926" y="170.194" width="0.99" height="19.235"/><rect class="cls-5" x="132.895" y="170.194" width="0.99" height="19.235"/><rect class="cls-5" x="129.864" y="170.194" width="0.99" height="19.235"/><rect class="cls-5" x="126.833" y="170.194" width="0.99" height="19.235"/><rect class="cls-5" x="123.802" y="170.194" width="0.99" height="19.235"/><rect class="cls-5" x="184.426" y="170.194" width="0.99" height="19.235"/><rect class="cls-5" x="187.457" y="170.194" width="0.99" height="19.235"/><rect class="cls-5" x="190.489" y="170.194" width="0.99" height="19.235"/><rect class="cls-5" x="193.52" y="170.194" width="0.99" height="19.235"/><rect class="cls-5" x="196.551" y="170.194" width="0.99" height="19.235"/><rect class="cls-5" x="199.582" y="170.194" width="0.99" height="19.235"/><rect class="cls-4" x="47.851" y="246.639" width="80.759" height="19.235" transform="translate(344.487 168.025) rotate(90)"/><rect class="cls-5" x="78.614" y="272.212" width="19.235" height="0.99"/><rect class="cls-5" x="78.614" y="269.221" width="19.235" height="0.99"/><rect class="cls-5" x="78.614" y="266.23" width="19.235" height="0.99"/><rect class="cls-5" x="78.614" y="263.239" width="19.235" height="0.99"/><rect class="cls-5" x="78.614" y="260.248" width="19.235" height="0.99"/><rect class="cls-5" x="78.614" y="257.257" width="19.235" height="0.99"/><rect class="cls-5" x="78.614" y="254.266" width="19.235" height="0.99"/><rect class="cls-5" x="78.614" y="251.274" width="19.235" height="0.99"/><rect class="cls-5" x="78.614" y="248.283" width="19.235" height="0.99"/><rect class="cls-5" x="78.614" y="245.292" width="19.235" height="0.99"/><rect class="cls-5" x="78.614" y="242.301" width="19.235" height="0.99"/><rect class="cls-5" x="78.614" y="239.31" width="19.235" height="0.99"/><rect class="cls-5" x="78.614" y="236.319" width="19.235" height="0.99"/><rect class="cls-5" x="78.614" y="233.328" width="19.235" height="0.99"/><rect class="cls-5" x="78.614" y="230.337" width="19.235" height="0.99"/><rect class="cls-5" x="78.614" y="227.346" width="19.235" height="0.99"/><rect class="cls-5" x="78.614" y="224.355" width="19.235" height="0.99"/><rect class="cls-5" x="78.614" y="221.364" width="19.235" height="0.99"/><rect class="cls-5" x="78.614" y="218.373" width="19.235" height="0.99"/><rect class="cls-5" x="78.614" y="215.382" width="19.235" height="0.99"/><rect class="cls-5" x="78.614" y="275.203" width="19.235" height="0.99"/><rect class="cls-5" x="78.614" y="278.194" width="19.235" height="0.99"/><rect class="cls-5" x="78.614" y="281.185" width="19.235" height="0.99"/><rect class="cls-5" x="78.614" y="284.176" width="19.235" height="0.99"/><rect class="cls-5" x="78.614" y="287.167" width="19.235" height="0.99"/><rect class="cls-5" x="78.614" y="290.159" width="19.235" height="0.99"/><rect class="cls-5" x="78.614" y="293.15" width="19.235" height="0.99"/><rect class="cls-5" x="78.614" y="296.141" width="19.235" height="0.99"/><rect class="cls-6" x="898.21" y="203.855" width="31.964" height="65.979"/><path class="cls-7" d="M929.679,204.35v64.989H898.705V204.35h30.974m.5-.5H898.21v65.979h31.964V203.855Z"/><path class="cls-4" d="M898.21,269.834h31.964a0,0,0,0,1,0,0v0a4.667,4.667,0,0,1-4.667,4.667H902.877a4.667,4.667,0,0,1-4.667-4.667v0A0,0,0,0,1,898.21,269.834Z"/><polygon class="cls-8" points="930.174 203.855 898.21 203.855 895.806 189.429 932.578 189.429 930.174 203.855"/><rect class="cls-6" x="898.21" y="89.789" width="31.964" height="65.979" transform="translate(1828.384 245.556) rotate(180)"/><path class="cls-7" d="M929.679,90.284v64.988H898.705V90.284h30.974m.5-.5H898.21v65.978h31.964V89.789Z"/><path class="cls-4" d="M898.21,85.121h31.964a0,0,0,0,1,0,0v0a4.667,4.667,0,0,1-4.667,4.667H902.877a4.667,4.667,0,0,1-4.667-4.667v0A0,0,0,0,1,898.21,85.121Z" transform="translate(1828.384 174.91) rotate(-180)"/><polygon class="cls-9" points="898.21 155.767 930.174 155.767 932.578 170.194 895.806 170.194 898.21 155.767"/><rect class="cls-10" x="846.12" y="203.855" width="31.964" height="65.979"/><path class="cls-7" d="M877.589,204.35v64.989H846.615V204.35h30.974m.495-.5H846.12v65.979h31.964V203.855Z"/><path class="cls-4" d="M846.12,269.834h31.964a0,0,0,0,1,0,0v0a4.667,4.667,0,0,1-4.667,4.667H850.787a4.667,4.667,0,0,1-4.667-4.667v0A0,0,0,0,1,846.12,269.834Z"/><polygon class="cls-11" points="878.084 203.855 846.12 203.855 843.715 189.429 880.488 189.429 878.084 203.855"/><rect class="cls-12" x="809.347" y="203.855" width="31.964" height="65.979"/><path class="cls-7" d="M840.816,204.35v64.989H809.842V204.35h30.974m.5-.5H809.347v65.979h31.964V203.855Z"/><path class="cls-4" d="M809.347,269.834h31.964a0,0,0,0,1,0,0v0a4.667,4.667,0,0,1-4.667,4.667H814.014a4.667,4.667,0,0,1-4.667-4.667v0A0,0,0,0,1,809.347,269.834Z"/><polygon class="cls-13" points="841.311 203.855 809.347 203.855 806.943 189.429 843.715 189.429 841.311 203.855"/><rect class="cls-12" x="809.347" y="89.789" width="31.964" height="65.979" transform="translate(1650.658 245.556) rotate(180)"/><path class="cls-7" d="M840.816,90.284v64.988H809.842V90.284h30.974m.5-.5H809.347v65.978h31.964V89.789Z"/><path class="cls-4" d="M809.347,85.121h31.964a0,0,0,0,1,0,0v0a4.667,4.667,0,0,1-4.667,4.667H814.014a4.667,4.667,0,0,1-4.667-4.667v0a0,0,0,0,1,0,0Z" transform="translate(1650.658 174.91) rotate(-180)"/><polygon class="cls-14" points="809.347 155.767 841.311 155.767 843.715 170.194 806.943 170.194 809.347 155.767"/><rect class="cls-5" x="846.12" y="89.789" width="31.964" height="65.979" transform="translate(1724.203 245.556) rotate(180)"/><path class="cls-7" d="M877.589,90.284v64.988H846.615V90.284h30.974m.495-.5H846.12v65.978h31.964V89.789Z"/><path class="cls-4" d="M846.12,85.121h31.964a0,0,0,0,1,0,0v0a4.667,4.667,0,0,1-4.667,4.667H850.787a4.667,4.667,0,0,1-4.667-4.667v0A0,0,0,0,1,846.12,85.121Z" transform="translate(1724.203 174.91) rotate(-180)"/><polygon class="cls-15" points="846.12 155.767 878.084 155.767 880.488 170.194 843.715 170.194 846.12 155.767"/><rect class="cls-12" x="756.104" y="203.855" width="31.964" height="65.979"/><path class="cls-7" d="M787.573,204.35v64.989H756.6V204.35h30.974m.5-.5H756.1v65.979h31.964V203.855Z"/><path class="cls-4" d="M756.1,269.834h31.964a0,0,0,0,1,0,0v0A4.667,4.667,0,0,1,783.4,274.5H760.771a4.667,4.667,0,0,1-4.667-4.667v0A0,0,0,0,1,756.1,269.834Z"/><polygon class="cls-16" points="788.068 203.855 756.104 203.855 753.7 189.429 790.472 189.429 788.068 203.855"/><rect class="cls-12" x="719.331" y="203.855" width="31.964" height="65.979"/><path class="cls-7" d="M750.8,204.35v64.989H719.826V204.35H750.8m.5-.5H719.331v65.979H751.3V203.855Z"/><path class="cls-4" d="M719.331,269.834H751.3a0,0,0,0,1,0,0v0a4.667,4.667,0,0,1-4.667,4.667H724a4.667,4.667,0,0,1-4.667-4.667v0a0,0,0,0,1,0,0Z"/><polygon class="cls-17" points="751.295 203.855 719.331 203.855 716.927 189.429 753.7 189.429 751.295 203.855"/><rect class="cls-12" x="719.331" y="89.789" width="31.964" height="65.979" transform="translate(1470.627 245.556) rotate(180)"/><path class="cls-7" d="M750.8,90.284v64.988H719.826V90.284H750.8m.5-.5H719.331v65.978H751.3V89.789Z"/><path class="cls-4" d="M719.331,85.121H751.3a0,0,0,0,1,0,0v0a4.667,4.667,0,0,1-4.667,4.667H724a4.667,4.667,0,0,1-4.667-4.667v0A0,0,0,0,1,719.331,85.121Z" transform="translate(1470.627 174.91) rotate(-180)"/><polygon class="cls-18" points="719.331 155.767 751.295 155.767 753.7 170.194 716.927 170.194 719.331 155.767"/><rect class="cls-12" x="756.104" y="89.789" width="31.964" height="65.979" transform="translate(1544.172 245.556) rotate(180)"/><path class="cls-7" d="M787.573,90.284v64.988H756.6V90.284h30.974m.5-.5H756.1v65.978h31.964V89.789Z"/><path class="cls-4" d="M756.1,85.121h31.964a0,0,0,0,1,0,0v0a4.667,4.667,0,0,1-4.667,4.667H760.771a4.667,4.667,0,0,1-4.667-4.667v0A0,0,0,0,1,756.1,85.121Z" transform="translate(1544.172 174.91) rotate(-180)"/><polygon class="cls-19" points="756.104 155.767 788.068 155.767 790.472 170.194 753.7 170.194 756.104 155.767"/><rect class="cls-12" x="666.089" y="203.855" width="31.964" height="65.979"/><path class="cls-7" d="M697.558,204.35v64.989H666.583V204.35h30.975m.5-.5H666.088v65.979h31.965V203.855Z"/><path class="cls-4" d="M666.089,269.834h31.964a0,0,0,0,1,0,0v0a4.667,4.667,0,0,1-4.667,4.667H670.756a4.667,4.667,0,0,1-4.667-4.667v0a0,0,0,0,1,0,0Z"/><polygon class="cls-20" points="698.053 203.855 666.089 203.855 663.684 189.429 700.457 189.429 698.053 203.855"/><rect class="cls-12" x="629.316" y="203.855" width="31.964" height="65.979"/><path class="cls-7" d="M660.785,204.35v64.989H629.811V204.35h30.974m.5-.5H629.316v65.979H661.28V203.855Z"/><path class="cls-4" d="M629.316,269.834H661.28a0,0,0,0,1,0,0v0a4.667,4.667,0,0,1-4.667,4.667H633.983a4.667,4.667,0,0,1-4.667-4.667v0A0,0,0,0,1,629.316,269.834Z"/><polygon class="cls-21" points="661.28 203.855 629.316 203.855 626.911 189.429 663.684 189.429 661.28 203.855"/><rect class="cls-12" x="629.316" y="89.789" width="31.964" height="65.979" transform="translate(1290.596 245.556) rotate(180)"/><path class="cls-7" d="M660.785,90.284v64.988H629.811V90.284h30.974m.5-.5H629.316v65.978H661.28V89.789Z"/><path class="cls-4" d="M629.316,85.121H661.28a0,0,0,0,1,0,0v0a4.667,4.667,0,0,1-4.667,4.667H633.983a4.667,4.667,0,0,1-4.667-4.667v0A0,0,0,0,1,629.316,85.121Z" transform="translate(1290.596 174.91) rotate(-180)"/><polygon class="cls-22" points="629.316 155.767 661.28 155.767 663.684 170.194 626.911 170.194 629.316 155.767"/><rect class="cls-12" x="666.089" y="89.789" width="31.964" height="65.979" transform="translate(1364.141 245.556) rotate(180)"/><path class="cls-7" d="M697.558,90.284v64.988H666.583V90.284h30.975m.5-.5H666.088v65.978h31.965V89.789Z"/><path class="cls-4" d="M666.089,85.121h31.964a0,0,0,0,1,0,0v0a4.667,4.667,0,0,1-4.667,4.667H670.756a4.667,4.667,0,0,1-4.667-4.667v0a0,0,0,0,1,0,0Z" transform="translate(1364.141 174.91) rotate(-180)"/><polygon class="cls-23" points="666.089 155.767 698.053 155.767 700.457 170.194 663.684 170.194 666.089 155.767"/><rect class="cls-12" x="576.073" y="203.855" width="31.964" height="65.979"/><path class="cls-7" d="M607.542,204.35v64.989H576.568V204.35h30.974m.5-.5H576.073v65.979h31.964V203.855Z"/><path class="cls-4" d="M576.073,269.834h31.964a0,0,0,0,1,0,0v0a4.667,4.667,0,0,1-4.667,4.667H580.74a4.667,4.667,0,0,1-4.667-4.667v0a0,0,0,0,1,0,0Z"/><polygon class="cls-24" points="608.037 203.855 576.073 203.855 573.669 189.429 610.441 189.429 608.037 203.855"/><rect class="cls-12" x="539.3" y="203.855" width="31.964" height="65.979"/><path class="cls-7" d="M570.769,204.35v64.989H539.795V204.35h30.974m.5-.5H539.3v65.979h31.964V203.855Z"/><path class="cls-4" d="M539.3,269.834h31.964a0,0,0,0,1,0,0v0A4.667,4.667,0,0,1,566.6,274.5H543.967a4.667,4.667,0,0,1-4.667-4.667v0a0,0,0,0,1,0,0Z"/><polygon class="cls-25" points="571.264 203.855 539.3 203.855 536.896 189.429 573.669 189.429 571.264 203.855"/><rect class="cls-12" x="539.3" y="89.789" width="31.964" height="65.979" transform="translate(1110.564 245.556) rotate(180)"/><path class="cls-7" d="M570.769,90.284v64.988H539.795V90.284h30.974m.5-.5H539.3v65.978h31.964V89.789Z"/><path class="cls-4" d="M539.3,85.121h31.964a0,0,0,0,1,0,0v0a4.667,4.667,0,0,1-4.667,4.667H543.967a4.667,4.667,0,0,1-4.667-4.667v0A0,0,0,0,1,539.3,85.121Z" transform="translate(1110.564 174.91) rotate(-180)"/><polygon class="cls-26" points="539.3 155.767 571.264 155.767 573.669 170.194 536.896 170.194 539.3 155.767"/><rect class="cls-12" x="576.073" y="89.789" width="31.964" height="65.979" transform="translate(1184.11 245.556) rotate(180)"/><path class="cls-7" d="M607.542,90.284v64.988H576.568V90.284h30.974m.5-.5H576.073v65.978h31.964V89.789Z"/><path class="cls-4" d="M576.073,85.121h31.964a0,0,0,0,1,0,0v0a4.667,4.667,0,0,1-4.667,4.667H580.74a4.667,4.667,0,0,1-4.667-4.667v0a0,0,0,0,1,0,0Z" transform="translate(1184.11 174.91) rotate(-180)"/><polygon class="cls-27" points="576.073 155.767 608.037 155.767 610.441 170.194 573.669 170.194 576.073 155.767"/><rect class="cls-12" x="486.057" y="203.855" width="31.964" height="65.979"/><path class="cls-7" d="M517.526,204.35v64.989H486.552V204.35h30.974m.5-.5H486.057v65.979h31.964V203.855Z"/><path class="cls-4" d="M486.057,269.834h31.964a0,0,0,0,1,0,0v0a4.667,4.667,0,0,1-4.667,4.667H490.725a4.667,4.667,0,0,1-4.667-4.667v0a0,0,0,0,1,0,0Z"/><polygon class="cls-28" points="518.021 203.855 486.057 203.855 483.653 189.429 520.426 189.429 518.021 203.855"/><rect class="cls-12" x="449.285" y="203.855" width="31.964" height="65.979"/><path class="cls-7" d="M480.754,204.35v64.989H449.78V204.35h30.974m.5-.5H449.285v65.979h31.964V203.855Z"/><path class="cls-4" d="M449.285,269.834h31.964a0,0,0,0,1,0,0v0a4.667,4.667,0,0,1-4.667,4.667H453.952a4.667,4.667,0,0,1-4.667-4.667v0A0,0,0,0,1,449.285,269.834Z"/><polygon class="cls-29" points="481.249 203.855 449.285 203.855 446.88 189.429 483.653 189.429 481.249 203.855"/><rect class="cls-12" x="449.285" y="89.789" width="31.964" height="65.979" transform="translate(930.533 245.556) rotate(180)"/><path class="cls-7" d="M480.754,90.284v64.988H449.78V90.284h30.974m.5-.5H449.285v65.978h31.964V89.789Z"/><path class="cls-4" d="M449.285,85.121h31.964a0,0,0,0,1,0,0v0a4.667,4.667,0,0,1-4.667,4.667H453.952a4.667,4.667,0,0,1-4.667-4.667v0A0,0,0,0,1,449.285,85.121Z" transform="translate(930.533 174.91) rotate(-180)"/><polygon class="cls-30" points="449.285 155.767 481.249 155.767 483.653 170.194 446.88 170.194 449.285 155.767"/><rect class="cls-12" x="486.057" y="89.789" width="31.964" height="65.979" transform="translate(1004.079 245.556) rotate(180)"/><path class="cls-7" d="M517.526,90.284v64.988H486.552V90.284h30.974m.5-.5H486.057v65.978h31.964V89.789Z"/><path class="cls-4" d="M486.057,85.121h31.964a0,0,0,0,1,0,0v0a4.667,4.667,0,0,1-4.667,4.667H490.725a4.667,4.667,0,0,1-4.667-4.667v0A0,0,0,0,1,486.057,85.121Z" transform="translate(1004.079 174.91) rotate(-180)"/><polygon class="cls-31" points="486.057 155.767 518.021 155.767 520.426 170.194 483.653 170.194 486.057 155.767"/><rect class="cls-12" x="396.042" y="206.259" width="31.964" height="63.574"/><path class="cls-7" d="M427.511,206.754v62.585H396.537V206.754h30.974m.495-.5H396.042v63.575h31.964V206.259Z"/><path class="cls-4" d="M396.042,269.834h31.964a0,0,0,0,1,0,0v0a4.667,4.667,0,0,1-4.667,4.667H400.709a4.667,4.667,0,0,1-4.667-4.667v0A0,0,0,0,1,396.042,269.834Z"/><polygon class="cls-32" points="428.006 206.259 396.042 206.259 393.637 189.429 430.41 189.429 428.006 206.259"/><rect class="cls-12" x="359.269" y="206.259" width="31.964" height="63.574"/><path class="cls-7" d="M390.738,206.754v62.585H359.764V206.754h30.974m.5-.5H359.269v63.575h31.964V206.259Z"/><path class="cls-4" d="M359.269,269.834h31.964a0,0,0,0,1,0,0v0a4.667,4.667,0,0,1-4.667,4.667H363.936a4.667,4.667,0,0,1-4.667-4.667v0A0,0,0,0,1,359.269,269.834Z"/><polygon class="cls-33" points="391.233 206.259 359.269 206.259 356.865 189.429 393.637 189.429 391.233 206.259"/><rect class="cls-12" x="359.269" y="89.789" width="31.964" height="65.979" transform="translate(750.502 245.556) rotate(180)"/><path class="cls-7" d="M390.738,90.284v64.988H359.764V90.284h30.974m.5-.5H359.269v65.978h31.964V89.789Z"/><path class="cls-4" d="M359.269,85.121h31.964a0,0,0,0,1,0,0v0a4.667,4.667,0,0,1-4.667,4.667H363.936a4.667,4.667,0,0,1-4.667-4.667v0a0,0,0,0,1,0,0Z" transform="translate(750.502 174.91) rotate(-180)"/><polygon class="cls-34" points="359.269 155.767 391.233 155.767 393.637 170.194 356.865 170.194 359.269 155.767"/><rect class="cls-12" x="396.042" y="89.789" width="31.964" height="65.979" transform="translate(824.048 245.556) rotate(180)"/><path class="cls-7" d="M427.511,90.284v64.988H396.537V90.284h30.974m.495-.5H396.042v65.978h31.964V89.789Z"/><path class="cls-4" d="M396.042,85.121h31.964a0,0,0,0,1,0,0v0a4.667,4.667,0,0,1-4.667,4.667H400.709a4.667,4.667,0,0,1-4.667-4.667v0a0,0,0,0,1,0,0Z" transform="translate(824.048 174.91) rotate(-180)"/><polygon class="cls-35" points="396.042 155.767 428.006 155.767 430.41 170.194 393.637 170.194 396.042 155.767"/><path class="cls-7" d="M284.768,209.159H243.753a7.009,7.009,0,0,1-7-7V157.464a7.009,7.009,0,0,1,7-7h41.015a7.008,7.008,0,0,1,7,7v44.694A7.009,7.009,0,0,1,284.768,209.159Zm-41.015-56.715a5.026,5.026,0,0,0-5.021,5.02v44.694a5.027,5.027,0,0,0,5.021,5.021h41.015a5.028,5.028,0,0,0,5.022-5.021V157.464a5.027,5.027,0,0,0-5.022-5.02Z"/><path class="cls-7" d="M258.007,144.241h12.508a3.607,3.607,0,0,1,3.607,3.607v3.607a0,0,0,0,1,0,0H254.4a0,0,0,0,1,0,0v-3.607a3.607,3.607,0,0,1,3.607-3.607Z"/><rect class="cls-36" x="1079.968" y="100.962" width="19.236" height="0.99"/><rect class="cls-36" x="1079.968" y="120.48" width="19.236" height="0.99"/><rect class="cls-36" x="1079.968" y="139.998" width="19.236" height="0.99"/><rect class="cls-36" x="1079.968" y="159.515" width="19.236" height="0.99"/><rect class="cls-36" x="1079.968" y="179.033" width="19.236" height="0.99"/><rect class="cls-36" x="1079.968" y="198.551" width="19.236" height="0.99"/><rect class="cls-36" x="1079.968" y="218.069" width="19.236" height="0.99"/><rect class="cls-36" x="1079.968" y="237.587" width="19.236" height="0.99"/><rect class="cls-36" x="1079.968" y="257.105" width="19.236" height="0.99"/><rect class="cls-36" x="1079.968" y="276.623" width="19.236" height="0.99"/><rect class="cls-36" x="1079.968" y="296.141" width="19.236" height="0.99"/><rect class="cls-36" x="706.684" y="323.084" width="0.99" height="19.235"/><rect class="cls-36" x="1002.388" y="55.774" width="0.99" height="19.235"/><rect class="cls-36" x="271.551" y="265.789" width="0.99" height="19.235"/><rect class="cls-36" x="257.294" y="265.789" width="0.99" height="19.235"/><rect class="cls-36" x="214.706" y="265.789" width="0.99" height="19.235"/><rect class="cls-36" x="199.9" y="265.789" width="0.99" height="19.235"/><rect class="cls-36" x="171.935" y="265.789" width="0.99" height="19.235"/><rect class="cls-36" x="157.861" y="265.789" width="0.99" height="19.235"/><rect class="cls-36" x="139.4" y="265.789" width="0.99" height="19.235"/><rect class="cls-36" x="121.487" y="265.789" width="0.99" height="19.235"/><rect class="cls-36" x="103.392" y="265.789" width="0.99" height="19.235"/><rect class="cls-36" x="658.113" y="323.084" width="0.99" height="19.235"/><rect class="cls-36" x="640.089" y="323.084" width="0.99" height="19.235"/><rect class="cls-36" x="622.064" y="323.084" width="0.99" height="19.235"/><rect class="cls-36" x="604.04" y="323.084" width="0.99" height="19.235"/><rect class="cls-36" x="586.016" y="323.084" width="0.99" height="19.235"/><rect class="cls-36" x="567.991" y="323.084" width="0.99" height="19.235"/><rect class="cls-36" x="549.967" y="323.084" width="0.99" height="19.235"/><rect class="cls-36" x="531.942" y="323.084" width="0.99" height="19.235"/><rect class="cls-36" x="513.917" y="323.084" width="0.99" height="19.235"/><rect class="cls-36" x="495.893" y="323.084" width="0.99" height="19.235"/><rect class="cls-36" x="477.868" y="323.084" width="0.99" height="19.235"/><rect class="cls-36" x="459.844" y="323.084" width="0.99" height="19.235"/><rect class="cls-36" x="175.04" y="323.084" width="0.99" height="19.235"/><rect class="cls-4" x="328.444" y="170.194" width="607.907" height="19.235"/><rect class="cls-12" x="961.277" y="166.587" width="24.044" height="26.448" rx="3.783"/><path class="cls-7" d="M981.538,167.082a3.292,3.292,0,0,1,3.288,3.288v18.883a3.292,3.292,0,0,1-3.288,3.287H965.06a3.292,3.292,0,0,1-3.288-3.287V170.37a3.292,3.292,0,0,1,3.288-3.288h16.478m0-.5H965.06a3.783,3.783,0,0,0-3.783,3.783v18.883a3.783,3.783,0,0,0,3.783,3.782h16.478a3.783,3.783,0,0,0,3.783-3.782V170.37a3.783,3.783,0,0,0-3.783-3.783Z"/><rect class="cls-4" x="936.351" y="170.194" width="24.926" height="2.404"/><rect class="cls-4" x="936.351" y="187.024" width="24.926" height="2.404"/><rect class="cls-36" x="706.684" y="323.084" width="0.99" height="19.235"/><rect class="cls-36" x="1002.388" y="55.774" width="0.99" height="19.235"/><rect class="cls-36" x="271.551" y="265.789" width="0.99" height="19.235"/><rect class="cls-36" x="257.294" y="265.789" width="0.99" height="19.235"/><rect class="cls-36" x="214.706" y="265.789" width="0.99" height="19.235"/><rect class="cls-36" x="199.9" y="265.789" width="0.99" height="19.235"/><rect class="cls-36" x="171.935" y="265.789" width="0.99" height="19.235"/><rect class="cls-36" x="157.861" y="265.789" width="0.99" height="19.235"/><rect class="cls-36" x="139.4" y="265.789" width="0.99" height="19.235"/><rect class="cls-36" x="121.487" y="265.789" width="0.99" height="19.235"/><rect class="cls-36" x="103.392" y="265.789" width="0.99" height="19.235"/><rect class="cls-36" x="658.113" y="323.084" width="0.99" height="19.235"/><rect class="cls-36" x="640.089" y="323.084" width="0.99" height="19.235"/><rect class="cls-36" x="622.064" y="323.084" width="0.99" height="19.235"/><rect class="cls-36" x="604.04" y="323.084" width="0.99" height="19.235"/><rect class="cls-36" x="586.016" y="323.084" width="0.99" height="19.235"/><rect class="cls-36" x="567.991" y="323.084" width="0.99" height="19.235"/><rect class="cls-36" x="549.967" y="323.084" width="0.99" height="19.235"/><rect class="cls-36" x="531.942" y="323.084" width="0.99" height="19.235"/><rect class="cls-36" x="513.917" y="323.084" width="0.99" height="19.235"/><rect class="cls-36" x="495.893" y="323.084" width="0.99" height="19.235"/><rect class="cls-36" x="477.868" y="323.084" width="0.99" height="19.235"/><rect class="cls-36" x="459.844" y="323.084" width="0.99" height="19.235"/><rect class="cls-36" x="175.04" y="323.084" width="0.99" height="19.235"/><rect class="cls-36" x="927.73" y="170.194" width="0.99" height="19.235"/><rect class="cls-36" x="904.932" y="170.194" width="0.99" height="19.235"/><rect class="cls-36" x="882.73" y="170.194" width="0.99" height="19.235"/><rect class="cls-36" x="852.711" y="170.194" width="0.99" height="19.235"/><rect class="cls-36" x="830.196" y="170.194" width="0.99" height="19.235"/><rect class="cls-36" x="770.359" y="170.194" width="0.99" height="19.235"/><rect class="cls-36" x="747.44" y="170.194" width="0.99" height="19.235"/><rect class="cls-36" x="724.925" y="170.194" width="0.99" height="19.235"/><rect class="cls-36" x="703.018" y="170.194" width="0.99" height="19.235"/><rect class="cls-36" x="664.885" y="170.194" width="0.99" height="19.235"/><rect class="cls-36" x="642.573" y="170.194" width="0.99" height="19.235"/><rect class="cls-36" x="619.855" y="170.194" width="0.99" height="19.235"/><rect class="cls-36" x="590.242" y="170.194" width="0.99" height="19.235"/><rect class="cls-36" x="567.524" y="170.194" width="0.99" height="19.235"/><rect class="cls-36" x="545.415" y="170.194" width="0.99" height="19.235"/><rect class="cls-36" x="522.901" y="170.194" width="0.99" height="19.235"/><rect class="cls-36" x="507.688" y="170.194" width="0.99" height="19.235"/><rect class="cls-36" x="484.97" y="170.194" width="0.99" height="19.235"/><rect class="cls-36" x="462.658" y="170.194" width="0.99" height="19.235"/><rect class="cls-36" x="440.144" y="170.194" width="0.99" height="19.235"/><rect class="cls-36" x="410.124" y="170.194" width="0.99" height="19.235"/><rect class="cls-37" x="418.133" y="170.194" width="0.99" height="19.235"/><rect class="cls-37" x="597.622" y="170.194" width="0.99" height="19.235"/><rect class="cls-37" x="777.712" y="170.194" width="0.99" height="19.235"/><rect class="cls-37" x="807.69" y="170.194" width="0.99" height="19.235"/><rect class="cls-36" x="379.901" y="170.194" width="0.99" height="19.235"/><rect class="cls-36" x="358.198" y="170.194" width="0.99" height="19.235"/><rect class="cls-36" x="335.346" y="170.194" width="0.99" height="19.235"/><path class="cls-38" d="M351.561,150.63V156.9H338.125V150.63h13.436m.5-.5H337.63v7.257h14.426v-7.257Z"/><polygon class="cls-38" points="337.63 157.342 352.056 157.342 352.056 150.135 337.63 157.342"/><rect class="cls-39" x="230.529" y="144.753" width="14.426" height="14.426"/><path d="M244.46,145.248v13.436H231.024V145.248H244.46m.5-.5H230.529v14.426h14.426V144.753Z"/><circle class="cls-5" cx="237.742" cy="151.966" r="4.809"/><path d="M237.742,148.147a3.819,3.819,0,1,1-3.819,3.819,3.824,3.824,0,0,1,3.819-3.819m0-.99a4.809,4.809,0,1,0,4.809,4.809,4.809,4.809,0,0,0-4.809-4.809Z"/><rect class="cls-5" x="283.566" y="144.753" width="14.426" height="14.426"/><path d="M297.5,145.248v13.436H284.061V145.248H297.5m.5-.5H283.566v14.426h14.427V144.753Z"/><circle class="cls-5" cx="290.78" cy="151.966" r="4.809"/><path d="M290.78,148.147a3.819,3.819,0,1,1-3.819,3.819,3.824,3.824,0,0,1,3.819-3.819m0-.99a4.809,4.809,0,1,0,4.808,4.809,4.809,4.809,0,0,0-4.808-4.809Z"/><rect class="cls-5" x="386.424" y="80.242" width="14.426" height="14.426"/><path d="M400.356,80.737V94.173H386.919V80.737h13.437m.5-.495H386.424V94.668h14.427V80.242Z"/><circle class="cls-5" cx="393.637" cy="87.455" r="4.809"/><path d="M393.637,83.636a3.819,3.819,0,1,1-3.818,3.819,3.823,3.823,0,0,1,3.818-3.819m0-.99a4.809,4.809,0,1,0,4.809,4.809,4.809,4.809,0,0,0-4.809-4.809Z"/><rect class="cls-5" x="476.44" y="80.242" width="14.426" height="14.426"/><path d="M490.371,80.737V94.173H476.935V80.737h13.436m.5-.495H476.44V94.668h14.426V80.242Z"/><circle class="cls-5" cx="483.653" cy="87.455" r="4.809"/><path d="M483.653,83.636a3.819,3.819,0,1,1-3.819,3.819,3.823,3.823,0,0,1,3.819-3.819m0-.99a4.809,4.809,0,1,0,4.809,4.809,4.809,4.809,0,0,0-4.809-4.809Z"/><rect class="cls-5" x="566.455" y="80.242" width="14.426" height="14.426"/><path d="M580.387,80.737V94.173H566.95V80.737h13.437m.5-.495H566.455V94.668h14.427V80.242Z"/><circle class="cls-5" cx="573.669" cy="87.455" r="4.809"/><path d="M573.669,83.636a3.819,3.819,0,1,1-3.819,3.819,3.823,3.823,0,0,1,3.819-3.819m0-.99a4.809,4.809,0,1,0,4.808,4.809,4.809,4.809,0,0,0-4.808-4.809Z"/><rect class="cls-5" x="656.471" y="80.242" width="14.426" height="14.426"/><path d="M670.4,80.737V94.173H656.966V80.737H670.4m.5-.495H656.471V94.668H670.9V80.242Z"/><circle class="cls-5" cx="663.684" cy="87.455" r="4.809"/><path d="M663.684,83.636a3.819,3.819,0,1,1-3.819,3.819,3.823,3.823,0,0,1,3.819-3.819m0-.99a4.809,4.809,0,1,0,4.809,4.809,4.809,4.809,0,0,0-4.809-4.809Z"/><rect class="cls-5" x="746.487" y="80.242" width="14.426" height="14.426"/><path d="M760.418,80.737V94.173H746.982V80.737h13.436m.5-.495H746.487V94.668h14.426V80.242Z"/><circle class="cls-5" cx="753.7" cy="87.455" r="4.809"/><path d="M753.7,83.636a3.819,3.819,0,1,1-3.819,3.819,3.824,3.824,0,0,1,3.819-3.819m0-.99a4.809,4.809,0,1,0,4.808,4.809,4.809,4.809,0,0,0-4.808-4.809Z"/><rect class="cls-5" x="836.502" y="80.242" width="14.426" height="14.426"/><path d="M850.433,80.737V94.173H837V80.737h13.436m.5-.495H836.5V94.668h14.426V80.242Z"/><circle class="cls-5" cx="843.715" cy="87.455" r="4.809"/><path d="M843.715,83.636a3.819,3.819,0,1,1-3.819,3.819,3.823,3.823,0,0,1,3.819-3.819m0-.99a4.809,4.809,0,1,0,4.809,4.809,4.808,4.808,0,0,0-4.809-4.809Z"/><rect class="cls-5" x="930.174" y="80.242" width="14.426" height="14.426"/><path d="M944.105,80.737V94.173H930.669V80.737h13.436m.5-.495H930.174V94.668H944.6V80.242Z"/><circle class="cls-5" cx="937.387" cy="87.455" r="4.809"/><path d="M937.387,83.636a3.819,3.819,0,1,1-3.819,3.819,3.823,3.823,0,0,1,3.819-3.819m0-.99a4.809,4.809,0,1,0,4.809,4.809,4.809,4.809,0,0,0-4.809-4.809Z"/><rect class="cls-5" x="930.174" y="135.684" width="14.426" height="14.426"/><path d="M944.105,136.179v13.436H930.669V136.179h13.436m.5-.5H930.174V150.11H944.6V135.684Z"/><circle class="cls-5" cx="937.387" cy="142.897" r="4.809"/><path d="M937.387,139.078a3.819,3.819,0,1,1-3.819,3.819,3.823,3.823,0,0,1,3.819-3.819m0-.99A4.809,4.809,0,1,0,942.2,142.9a4.809,4.809,0,0,0-4.809-4.809Z"/><rect class="cls-5" x="930.174" y="210.052" width="14.426" height="14.426"/><path d="M944.105,210.547v13.437H930.669V210.547h13.436m.5-.5H930.174v14.426H944.6V210.052Z"/><circle class="cls-5" cx="937.387" cy="217.265" r="4.809"/><path d="M937.387,213.446a3.819,3.819,0,1,1-3.819,3.819,3.824,3.824,0,0,1,3.819-3.819m0-.989a4.809,4.809,0,1,0,4.809,4.808,4.809,4.809,0,0,0-4.809-4.808Z"/><rect class="cls-5" x="930.174" y="264.954" width="14.426" height="14.426"/><path d="M944.105,265.449v13.437H930.669V265.449h13.436m.5-.5H930.174v14.427H944.6V264.954Z"/><circle class="cls-5" cx="937.387" cy="272.167" r="4.809"/><path d="M937.387,268.349a3.819,3.819,0,1,1-3.819,3.818,3.823,3.823,0,0,1,3.819-3.818m0-.99a4.809,4.809,0,1,0,4.809,4.808,4.809,4.809,0,0,0-4.809-4.808Z"/><rect class="cls-5" x="64.187" y="251.362" width="14.426" height="14.426"/><path d="M78.118,251.857v13.437H64.682V251.857H78.118m.5-.5H64.187v14.427H78.613V251.362Z"/><circle class="cls-5" cx="71.4" cy="258.576" r="4.809"/><path d="M71.4,254.757a3.819,3.819,0,1,1-3.819,3.818,3.823,3.823,0,0,1,3.819-3.818m0-.99a4.809,4.809,0,1,0,4.809,4.808,4.809,4.809,0,0,0-4.809-4.808Z"/><rect class="cls-5" x="278.371" y="277.932" width="14.426" height="14.426"/><path d="M292.3,278.427v13.436H278.866V278.427H292.3m.5-.5H278.371v14.426H292.8V277.932Z"/><circle class="cls-5" cx="285.584" cy="285.145" r="4.809"/><path d="M285.584,281.326a3.819,3.819,0,1,1-3.819,3.819,3.823,3.823,0,0,1,3.819-3.819m0-.99a4.809,4.809,0,1,0,4.809,4.809,4.809,4.809,0,0,0-4.809-4.809Z"/><rect class="cls-5" x="386.424" y="264.954" width="14.426" height="14.426"/><path d="M400.356,265.449v13.437H386.919V265.449h13.437m.5-.5H386.424v14.427h14.427V264.954Z"/><circle class="cls-5" cx="393.637" cy="272.167" r="4.809"/><path d="M393.637,268.349a3.819,3.819,0,1,1-3.818,3.818,3.823,3.823,0,0,1,3.818-3.818m0-.99a4.809,4.809,0,1,0,4.809,4.808,4.808,4.808,0,0,0-4.809-4.808Z"/><rect class="cls-5" x="476.44" y="264.954" width="14.426" height="14.426"/><path d="M490.371,265.449v13.437H476.935V265.449h13.436m.5-.5H476.44v14.427h14.426V264.954Z"/><circle class="cls-5" cx="483.653" cy="272.167" r="4.809"/><path d="M483.653,268.349a3.819,3.819,0,1,1-3.819,3.818,3.823,3.823,0,0,1,3.819-3.818m0-.99a4.809,4.809,0,1,0,4.809,4.808,4.809,4.809,0,0,0-4.809-4.808Z"/><rect class="cls-5" x="566.455" y="264.954" width="14.426" height="14.426"/><path d="M580.387,265.449v13.437H566.95V265.449h13.437m.5-.5H566.455v14.427h14.427V264.954Z"/><circle class="cls-5" cx="573.669" cy="272.167" r="4.809"/><path d="M573.669,268.349a3.819,3.819,0,1,1-3.819,3.818,3.823,3.823,0,0,1,3.819-3.818m0-.99a4.809,4.809,0,1,0,4.808,4.808,4.809,4.809,0,0,0-4.808-4.808Z"/><rect class="cls-5" x="656.471" y="264.954" width="14.426" height="14.426"/><path d="M670.4,265.449v13.437H656.966V265.449H670.4m.5-.5H656.471v14.427H670.9V264.954Z"/><circle class="cls-5" cx="663.684" cy="272.167" r="4.809"/><path d="M663.684,268.349a3.819,3.819,0,1,1-3.819,3.818,3.823,3.823,0,0,1,3.819-3.818m0-.99a4.809,4.809,0,1,0,4.809,4.808,4.809,4.809,0,0,0-4.809-4.808Z"/><rect class="cls-5" x="746.487" y="264.954" width="14.426" height="14.426"/><path d="M760.418,265.449v13.437H746.982V265.449h13.436m.5-.5H746.487v14.427h14.426V264.954Z"/><circle class="cls-5" cx="753.7" cy="272.167" r="4.809"/><path d="M753.7,268.349a3.819,3.819,0,1,1-3.819,3.818,3.824,3.824,0,0,1,3.819-3.818m0-.99a4.809,4.809,0,1,0,4.808,4.808,4.809,4.809,0,0,0-4.808-4.808Z"/><rect class="cls-5" x="836.502" y="264.954" width="14.426" height="14.426"/><path d="M850.433,265.449v13.437H837V265.449h13.436m.5-.5H836.5v14.427h14.426V264.954Z"/><circle class="cls-5" cx="843.715" cy="272.167" r="4.809"/><path d="M843.715,268.349a3.819,3.819,0,1,1-3.819,3.818,3.823,3.823,0,0,1,3.819-3.818m0-.99a4.809,4.809,0,1,0,4.809,4.808,4.808,4.808,0,0,0-4.809-4.808Z"/><rect class="cls-5" x="283.566" y="200.956" width="14.426" height="14.426"/><path d="M297.5,201.45v13.437H284.061V201.45H297.5m.5-.494H283.566v14.426h14.427V200.956Z"/><circle class="cls-5" cx="290.78" cy="208.169" r="4.809"/><path d="M290.78,204.35a3.819,3.819,0,1,1-3.819,3.819,3.823,3.823,0,0,1,3.819-3.819m0-.99a4.809,4.809,0,1,0,4.808,4.809,4.809,4.809,0,0,0-4.808-4.809Z"/><rect class="cls-5" x="230.529" y="200.956" width="14.426" height="14.426"/><path d="M244.46,201.45v13.437H231.024V201.45H244.46m.5-.494H230.529v14.426h14.426V200.956Z"/><circle class="cls-5" cx="237.742" cy="208.169" r="4.809"/><path d="M237.742,204.35a3.819,3.819,0,1,1-3.819,3.819,3.823,3.823,0,0,1,3.819-3.819m0-.99a4.809,4.809,0,1,0,4.809,4.809,4.809,4.809,0,0,0-4.809-4.809Z"/><path class="cls-7" d="M264.261,144.241s5.749-7.416,5.749-11.082a5.749,5.749,0,1,0-11.5,0C258.512,136.825,264.261,144.241,264.261,144.241Z"/><path class="cls-38" d="M264.26,144.645l-.195-.252c-.237-.306-5.8-7.526-5.8-11.234a6,6,0,1,1,11.993,0c0,3.708-5.564,10.928-5.8,11.234Zm0-16.988a5.508,5.508,0,0,0-5.5,5.5c0,3.162,4.5,9.337,5.5,10.672,1-1.335,5.5-7.51,5.5-10.672A5.508,5.508,0,0,0,264.26,127.657Z"/><circle class="cls-5" cx="961.277" cy="167.789" r="7.213"/><path d="M961.277,161.071a6.718,6.718,0,1,1-6.718,6.718,6.725,6.725,0,0,1,6.718-6.718m0-.5a7.213,7.213,0,1,0,7.213,7.213,7.214,7.214,0,0,0-7.213-7.213Z"/><g class="cls-40"><rect x="939.803" y="165.948" width="36.277" height="0.99" transform="translate(162.882 726.117) rotate(-45)"/><rect x="942.147" y="168.292" width="36.277" height="0.99" transform="translate(161.911 728.461) rotate(-45)"/><rect x="944.49" y="170.635" width="36.278" height="0.99" transform="translate(160.94 730.805) rotate(-45)"/></g><circle class="cls-5" cx="317.47" cy="167.789" r="7.213"/><path d="M317.47,161.071a6.718,6.718,0,1,1-6.718,6.718,6.726,6.726,0,0,1,6.718-6.718m0-.5a7.213,7.213,0,1,0,7.213,7.213,7.213,7.213,0,0,0-7.213-7.213Z"/><g class="cls-41"><rect x="295.996" y="165.948" width="36.278" height="0.99" transform="translate(-25.685 270.877) rotate(-45)"/><rect x="298.339" y="168.292" width="36.278" height="0.99" transform="translate(-26.656 273.221) rotate(-45)"/><rect x="300.683" y="170.635" width="36.278" height="0.99" transform="translate(-27.627 275.564) rotate(-45)"/></g><circle class="cls-5" cx="249.591" cy="167.789" r="7.213"/><path d="M249.591,161.071a6.718,6.718,0,1,1-6.718,6.718,6.725,6.725,0,0,1,6.718-6.718m0-.5a7.213,7.213,0,1,0,7.213,7.213,7.214,7.214,0,0,0-7.213-7.213Z"/><g class="cls-42"><rect x="228.117" y="165.948" width="36.278" height="0.99" transform="translate(-45.566 222.879) rotate(-45)"/><rect x="230.461" y="168.292" width="36.278" height="0.99" transform="translate(-46.537 225.223) rotate(-45)"/><rect x="232.804" y="170.635" width="36.278" height="0.99" transform="translate(-47.508 227.567) rotate(-45)"/></g><path class="cls-38" d="M351.561,216.49v6.268H338.125V216.49h13.436m.5-.5H337.63v7.258h14.426V216Z"/><polygon class="cls-38" points="337.63 223.202 352.056 223.202 352.056 215.995 337.63 223.202"/><path class="cls-38" d="M381.969,159.9v6.268H368.533V159.9h13.436m.5-.5H368.038v7.258h14.426V159.4Z"/><polygon class="cls-38" points="368.038 166.609 382.464 166.609 382.464 159.402 368.038 166.609"/><path class="cls-43" d="M381.969,193.508v6.267H368.533v-6.267h13.436m.5-.5H368.038v7.257h14.426v-7.257Z"/><polygon class="cls-43" points="368.038 200.22 382.464 200.22 382.464 193.013 368.038 200.22"/><path class="cls-38" d="M418.742,159.9v6.268H405.306V159.9h13.436m.5-.5H404.811v7.258h14.426V159.4Z"/><polygon class="cls-38" points="404.811 166.609 419.237 166.609 419.237 159.402 404.811 166.609"/><path class="cls-43" d="M418.742,193.508v6.267H405.306v-6.267h13.436m.5-.5H404.811v7.257h14.426v-7.257Z"/><polygon class="cls-43" points="404.811 200.22 419.237 200.22 419.237 193.013 404.811 200.22"/><path class="cls-38" d="M471.985,159.9v6.268H458.548V159.9h13.437m.5-.5H458.053v7.258H472.48V159.4Z"/><polygon class="cls-38" points="458.053 166.609 472.48 166.609 472.48 159.402 458.053 166.609"/><path class="cls-43" d="M471.985,193.508v6.267H458.548v-6.267h13.437m.5-.5H458.053v7.257H472.48v-7.257Z"/><polygon class="cls-43" points="458.053 200.22 472.48 200.22 472.48 193.013 458.053 200.22"/><path class="cls-38" d="M508.758,159.9v6.268H495.321V159.9h13.437m.494-.5H494.826v7.258h14.426V159.4Z"/><polygon class="cls-38" points="494.826 166.609 509.252 166.609 509.252 159.402 494.826 166.609"/><path class="cls-43" d="M508.758,193.508v6.267H495.321v-6.267h13.437m.494-.5H494.826v7.257h14.426v-7.257Z"/><polygon class="cls-43" points="494.826 200.22 509.252 200.22 509.252 193.013 494.826 200.22"/><path class="cls-38" d="M562,193.508v6.267H548.564v-6.267H562m.5-.5H548.069v7.257H562.5v-7.257Z"/><polygon class="cls-38" points="548.069 200.22 562.495 200.22 562.495 193.013 548.069 200.22"/><path class="cls-43" d="M562,159.9v6.268H548.564V159.9H562m.5-.5H548.069v7.258H562.5V159.4Z"/><polygon class="cls-43" points="548.069 166.609 562.495 166.609 562.495 159.402 548.069 166.609"/><path class="cls-38" d="M742.031,193.508v6.267H728.6v-6.267h13.436m.5-.5H728.1v7.257h14.426v-7.257Z"/><polygon class="cls-38" points="728.1 200.22 742.526 200.22 742.526 193.013 728.1 200.22"/><path class="cls-43" d="M742.031,159.9v6.268H728.6V159.9h13.436m.5-.5H728.1v7.258h14.426V159.4Z"/><polygon class="cls-43" points="728.1 166.609 742.526 166.609 742.526 159.402 728.1 166.609"/><path class="cls-38" d="M598.773,159.9v6.268H585.337V159.9h13.436m.5-.5H584.842v7.258h14.426V159.4Z"/><polygon class="cls-38" points="584.842 166.609 599.268 166.609 599.268 159.402 584.842 166.609"/><path class="cls-43" d="M598.773,193.508v6.267H585.337v-6.267h13.436m.5-.5H584.842v7.257h14.426v-7.257Z"/><polygon class="cls-43" points="584.842 200.22 599.268 200.22 599.268 193.013 584.842 200.22"/><path class="cls-38" d="M652.016,159.9v6.268H638.58V159.9h13.436m.5-.5H638.085v7.258h14.426V159.4Z"/><polygon class="cls-38" points="638.085 166.609 652.511 166.609 652.511 159.402 638.085 166.609"/><path class="cls-43" d="M652.016,193.508v6.267H638.58v-6.267h13.436m.5-.5H638.085v7.257h14.426v-7.257Z"/><polygon class="cls-43" points="638.085 200.22 652.511 200.22 652.511 193.013 638.085 200.22"/><path class="cls-38" d="M688.789,159.9v6.268H675.352V159.9h13.437m.5-.5H674.857v7.258h14.427V159.4Z"/><polygon class="cls-38" points="674.857 166.609 689.284 166.609 689.284 159.402 674.857 166.609"/><path class="cls-43" d="M688.789,193.508v6.267H675.352v-6.267h13.437m.5-.5H674.857v7.257h14.427v-7.257Z"/><polygon class="cls-43" points="674.857 200.22 689.284 200.22 689.284 193.013 674.857 200.22"/><path class="cls-38" d="M778.8,159.9v6.268H765.368V159.9H778.8m.5-.5H764.873v7.258H779.3V159.4Z"/><polygon class="cls-38" points="764.873 166.609 779.299 166.609 779.299 159.402 764.873 166.609"/><path class="cls-43" d="M778.8,193.508v6.267H765.368v-6.267H778.8m.5-.5H764.873v7.257H779.3v-7.257Z"/><polygon class="cls-43" points="764.873 200.22 779.299 200.22 779.299 193.013 764.873 200.22"/><path class="cls-38" d="M832.047,159.9v6.268H818.611V159.9h13.436m.5-.5H818.116v7.258h14.426V159.4Z"/><polygon class="cls-38" points="818.116 166.609 832.542 166.609 832.542 159.402 818.116 166.609"/><path class="cls-43" d="M832.047,193.508v6.267H818.611v-6.267h13.436m.5-.5H818.116v7.257h14.426v-7.257Z"/><polygon class="cls-43" points="818.116 200.22 832.542 200.22 832.542 193.013 818.116 200.22"/><path class="cls-38" d="M868.82,159.9v6.268H855.383V159.9H868.82m.5-.5H854.888v7.258h14.427V159.4Z"/><polygon class="cls-38" points="854.888 166.609 869.315 166.609 869.315 159.402 854.888 166.609"/><path class="cls-43" d="M868.82,193.508v6.267H855.383v-6.267H868.82m.5-.5H854.888v7.257h14.427v-7.257Z"/><polygon class="cls-43" points="854.888 200.22 869.315 200.22 869.315 193.013 854.888 200.22"/><path class="cls-38" d="M922.062,159.9v6.268H908.626V159.9h13.436m.5-.5H908.131v7.258h14.426V159.4Z"/><polygon class="cls-38" points="908.131 166.609 922.557 166.609 922.557 159.402 908.131 166.609"/><path class="cls-43" d="M922.062,193.508v6.267H908.626v-6.267h13.436m.5-.5H908.131v7.257h14.426v-7.257Z"/><polygon class="cls-43" points="908.131 200.22 922.557 200.22 922.557 193.013 908.131 200.22"/><rect class="cls-43" x="78.613" y="215.877" width="19.235" height="4.809"/><rect class="cls-43" x="78.613" y="291.827" width="19.235" height="4.809"/><rect class="cls-43" x="143.928" y="330.297" width="19.235" height="4.809" transform="translate(-179.156 486.247) rotate(-90)"/><rect class="cls-43" x="453.846" y="330.297" width="19.235" height="4.809" transform="translate(130.762 796.164) rotate(-90)"/><rect class="cls-43" x="599.665" y="330.297" width="19.235" height="4.809" transform="translate(276.582 941.984) rotate(-90)"/><rect class="cls-43" x="663.301" y="330.297" width="19.235" height="4.809" transform="translate(340.218 1005.62) rotate(-90)"/><rect class="cls-43" x="1079.969" y="291.225" width="19.235" height="4.809"/><rect class="cls-43" x="1079.969" y="154.563" width="19.235" height="4.809"/><rect class="cls-43" x="987.374" y="62.987" width="19.235" height="4.809" transform="translate(1062.382 -931.6) rotate(90)"/><rect class="cls-43" x="794.667" y="62.987" width="19.235" height="4.809" transform="translate(869.675 -738.893) rotate(90)"/><rect class="cls-43" x="88.231" y="318.645" width="19.235" height="4.809" transform="translate(-198.357 163.222) rotate(-45)"/><rect class="cls-43" x="78.613" y="258.338" width="19.235" height="4.809"/></svg>